<svg width="171" height="136" viewBox="0 0 171 136" fill="none" xmlns="http://www.w3.org/2000/svg">
<path d="M35.4169 106.684C35.7453 106.703 36.0808 106.69 36.4202 106.643L36.5206 107.367C36.1336 107.42 35.7503 107.434 35.3745 107.412L35.4169 106.684ZM37.9002 106.437L38.0005 107.161L36.5206 107.367L36.4202 106.643L37.9002 106.437ZM43.8207 105.617L43.9211 106.341L40.9612 106.751L40.8608 106.027L43.8207 105.617ZM49.7413 104.796L49.8417 105.52L46.881 105.931L46.7807 105.206L49.7413 104.796ZM55.6611 103.976L55.7615 104.7L52.8016 105.11L52.7012 104.386L55.6611 103.976ZM61.5817 103.155L61.6821 103.879L58.7221 104.289L58.6218 103.565L61.5817 103.155ZM67.5023 102.334L67.6026 103.058L64.642 103.469L64.5416 102.745L67.5023 102.334ZM73.4221 101.514L73.5225 102.238L70.5625 102.648L70.4622 101.924L73.4221 101.514ZM79.3427 100.693L79.443 101.417L76.4831 101.827L76.3827 101.103L79.3427 100.693ZM85.2632 99.8724L85.3636 100.596L82.403 101.007L82.3026 100.283L85.2632 99.8724ZM91.1838 99.0517L91.2841 99.7758L88.3235 100.186L88.2232 99.4621L91.1838 99.0517ZM97.1036 98.2312L97.204 98.9553L94.2441 99.3655L94.1437 98.6415L97.1036 98.2312ZM103.024 97.4105L103.125 98.1346L100.165 98.5449L100.064 97.8208L103.024 97.4105ZM108.945 96.5899L109.045 97.314L106.084 97.7243L105.984 97.0003L108.945 96.5899ZM114.865 95.7693L114.965 96.4934L112.005 96.9037L111.905 96.1796L114.865 95.7693ZM120.785 94.9487L120.886 95.6728L117.926 96.083L117.825 95.359L120.785 94.9487ZM126.706 94.128L126.806 94.8521L123.845 95.2625L123.745 94.5384L126.706 94.128ZM132.626 93.3075L132.726 94.0316L129.766 94.4418L129.666 93.7178L132.626 93.3075ZM137.066 92.692L137.167 93.4161L135.687 93.6212L135.586 92.8971L137.066 92.692ZM138.281 93.1484C137.926 93.2714 137.553 93.3624 137.167 93.4161L137.066 92.692C137.406 92.6449 137.732 92.5661 138.043 92.4586L138.281 93.1484ZM31.8929 104.974C32.3398 105.476 32.882 105.886 33.4862 106.179L33.3257 106.508L33.3265 106.509L33.1665 106.836C32.4764 106.501 31.8573 106.033 31.3469 105.46L31.8929 104.974ZM141.297 90.0148L141.626 90.1739C141.29 90.8642 140.822 91.4831 140.249 91.9935L140.007 91.7215L139.764 91.4482C140.265 91.0014 140.675 90.4592 140.969 89.8549L141.297 90.0148ZM29.9251 102.377L29.7338 100.997L30.4579 100.896L30.6492 102.277C30.6962 102.616 30.775 102.942 30.8826 103.253L30.192 103.492C30.0691 103.136 29.9787 102.764 29.9251 102.377ZM142.156 86.8206C142.21 87.2073 142.223 87.5904 142.202 87.9659L141.473 87.9242C141.492 87.5959 141.479 87.2603 141.432 86.9209L141.241 85.5407L141.965 85.4403L142.156 86.8206ZM29.6926 95.3753L30.0752 98.1358L29.3511 98.2362L28.9685 95.4756L29.6926 95.3753ZM141.2 79.9193L141.582 82.6798L140.858 82.7801L140.476 80.0196L141.2 79.9193ZM28.9273 89.8542L29.3099 92.6148L28.5859 92.7151L28.2032 89.9546L28.9273 89.8542ZM140.434 74.3982L140.817 77.1587L140.093 77.2591L139.71 74.4986L140.434 74.3982ZM28.162 84.3332L28.5447 87.0937L27.8206 87.1941L27.438 84.4336L28.162 84.3332ZM139.669 68.8772L140.052 71.6377L139.328 71.7381L138.945 68.9775L139.669 68.8772ZM27.3968 78.8121L27.7794 81.5727L27.0553 81.673L26.6727 78.9125L27.3968 78.8121ZM138.904 63.3561L139.286 66.1166L138.562 66.217L138.18 63.4565L138.904 63.3561ZM26.6315 73.2911L27.0141 76.0516L26.29 76.152L25.9074 73.3915L26.6315 73.2911ZM138.138 57.8351L138.521 60.5956L137.797 60.696L137.414 57.9354L138.138 57.8351ZM25.8662 67.7701L26.2488 70.5306L25.5248 70.6309L25.1421 67.8704L25.8662 67.7701ZM137.373 52.314L137.756 55.0746L137.032 55.1749L136.649 52.4144L137.373 52.314ZM25.1009 62.249L25.4836 65.0095L24.7595 65.1099L24.3769 62.3494L25.1009 62.249ZM136.608 46.793L136.991 49.5535L136.267 49.6539L135.884 46.8934L136.608 46.793ZM23.8029 58.2086C23.7493 57.8217 23.7348 57.4384 23.7565 57.0626L24.4859 57.105C24.467 57.4333 24.4799 57.7688 24.527 58.1082L24.7183 59.4885L23.9942 59.5888L23.8029 58.2086ZM136.225 44.0325L135.501 44.1328L135.31 42.7526C135.263 42.4132 135.184 42.0868 135.077 41.776L135.766 41.5369C135.889 41.8926 135.98 42.2652 136.034 42.6522L136.225 44.0325ZM25.85 53.1935L26.1956 53.5809C25.6939 54.0278 25.2837 54.57 24.9902 55.1742L24.3326 54.8546C24.6679 54.1645 25.1362 53.5454 25.7091 53.0351L25.85 53.1935ZM132.792 38.1923C133.482 38.5275 134.101 38.9959 134.611 39.5688L134.066 40.0552C133.619 39.5536 133.077 39.1434 132.473 38.8498L132.7 38.383L132.792 38.1923ZM30.2725 51.408L30.3729 52.132L28.8929 52.3372C28.5535 52.3842 28.2271 52.463 27.9163 52.5706L27.6772 51.8801C27.9409 51.7889 28.214 51.7159 28.4953 51.6622L28.7926 51.6131L30.2725 51.408ZM129.738 37.629C130.023 37.6041 130.305 37.6002 130.584 37.6162L130.542 38.3456C130.214 38.3266 129.878 38.3396 129.539 38.3866L128.059 38.5918L127.959 37.8677L129.439 37.6625L129.738 37.629ZM36.1931 50.5873L36.2935 51.3114L33.3335 51.7217L33.2332 50.9976L36.1931 50.5873ZM42.1137 49.7667L42.214 50.4907L39.2534 50.9011L39.153 50.177L42.1137 49.7667ZM48.0335 48.9461L48.1339 49.6702L45.1739 50.0805L45.0736 49.3564L48.0335 48.9461ZM53.9541 48.1255L54.0544 48.8495L51.0945 49.2598L50.9941 48.5357L53.9541 48.1255ZM59.8746 47.3048L59.975 48.0289L57.0143 48.4393L56.914 47.7152L59.8746 47.3048ZM65.7945 46.4843L65.8948 47.2083L62.9349 47.6186L62.8345 46.8945L65.7945 46.4843ZM71.715 45.6636L71.8154 46.3877L68.8555 46.798L68.7551 46.0739L71.715 45.6636ZM77.6356 44.843L77.7359 45.567L74.7753 45.9774L74.6749 45.2533L77.6356 44.843ZM83.5561 44.0223L83.6565 44.7464L80.6959 45.1568L80.5955 44.4327L83.5561 44.0223ZM89.476 43.2018L89.5764 43.9258L86.6164 44.3361L86.5161 43.612L89.476 43.2018ZM95.3965 42.3811L95.4969 43.1052L92.537 43.5155L92.4366 42.7914L95.3965 42.3811ZM101.317 41.5605L101.417 42.2845L98.4568 42.6949L98.3565 41.9708L101.317 41.5605ZM107.237 40.7399L107.337 41.464L104.377 41.8743L104.277 41.1502L107.237 40.7399ZM113.158 39.9193L113.258 40.6433L110.298 41.0536L110.198 40.3295L113.158 39.9193ZM119.078 39.0986L119.178 39.8227L116.218 40.2331L116.117 39.509L119.078 39.0986ZM124.998 38.2781L125.098 39.0021L122.138 39.4124L122.038 38.6883L124.998 38.2781Z" fill="#BBBBBB"/>
<path d="M38 60.9583C38 57.745 40.6266 55.1401 43.8667 55.1401H142.133C145.373 55.1401 148 57.745 148 60.9583V105.322C148 108.535 145.373 111.14 142.133 111.14H43.8667C40.6266 111.14 38 108.535 38 105.322V60.9583Z" fill="#EEEEEE"/>
<path d="M142.133 110.413V111.14H43.8667V110.413H142.133ZM147.267 105.322V60.9583C147.267 58.1467 144.968 55.8674 142.133 55.8674H43.8667C41.0316 55.8674 38.7333 58.1467 38.7333 60.9583V105.322C38.7333 108.134 41.0316 110.413 43.8667 110.413V111.14C40.6266 111.14 38 108.535 38 105.322V60.9583C38 57.745 40.6266 55.1401 43.8667 55.1401H142.133L142.436 55.1479C145.535 55.3039 148 57.8456 148 60.9583V105.322C148 108.435 145.535 110.976 142.436 111.132L142.133 111.14V110.413C144.968 110.413 147.267 108.134 147.267 105.322Z" fill="#EEEEEE"/>
<path d="M46 66.0687C46 64.4513 47.3112 63.1401 48.9286 63.1401H84.0714C85.6888 63.1401 87 64.4513 87 66.0687V101.212C87 102.829 85.6888 104.14 84.0714 104.14H48.9286C47.3112 104.14 46 102.829 46 101.212V66.0687Z" fill="white"/>
<path d="M48.0878 103.241C48.3457 103.348 48.6294 103.408 48.9286 103.408V104.14C48.5313 104.14 48.1529 104.06 47.8075 103.917L48.0878 103.241ZM50.3929 103.408V104.14H48.9286V103.408H50.3929ZM56.25 103.408V104.14H53.3214V103.408H56.25ZM62.1071 103.408V104.14H59.1786V103.408H62.1071ZM67.9643 103.408V104.14H65.0357V103.408H67.9643ZM73.8214 103.408V104.14H70.8929V103.408H73.8214ZM79.6786 103.408V104.14H76.75V103.408H79.6786ZM84.0714 103.408V104.14H82.6071V103.408H84.0714ZM85.1918 103.917C84.8906 104.042 84.5644 104.119 84.2223 104.137L84.0714 104.14V103.408C84.3706 103.408 84.6543 103.348 84.9123 103.241L85.1918 103.917ZM46 101.212V99.7473H46.7321V101.212C46.7321 101.511 46.7918 101.794 46.8987 102.052L46.2224 102.332C46.0975 102.031 46.0209 101.704 46.0036 101.362L46 101.212ZM86.9964 101.362C86.9791 101.705 86.9018 102.031 86.7769 102.332L86.1013 102.052C86.2082 101.794 86.2679 101.511 86.2679 101.212V99.7473H87V101.212L86.9964 101.362ZM46.7321 93.8901V96.8187H46V93.8901H46.7321ZM87 93.8901V96.8187H86.2679V93.8901H87ZM46.7321 88.033V90.9616H46V88.033H46.7321ZM87 88.033V90.9616H86.2679V88.033H87ZM46.7321 82.1759V85.1044H46V82.1759H46.7321ZM87 82.1759V85.1044H86.2679V82.1759H87ZM46.7321 76.3187V79.2473H46V76.3187H46.7321ZM87 76.3187V79.2473H86.2679V76.3187H87ZM46.7321 70.4616V73.3901H46V70.4616H46.7321ZM87 70.4616V73.3901H86.2679V70.4616H87ZM46 66.0687C46 65.6716 46.0791 65.2929 46.2224 64.9476L46.8987 65.2279C46.7918 65.4858 46.7321 65.7695 46.7321 66.0687V67.533H46V66.0687ZM87 67.533H86.2679V66.0687C86.2679 65.7695 86.2082 65.4858 86.1013 65.2279L86.7769 64.9476C86.9202 65.293 87 65.6715 87 66.0687V67.533ZM50.3929 63.1401V63.8723H48.9286C48.6294 63.8723 48.3457 63.9319 48.0878 64.0389L47.8075 63.3625C48.1528 63.2193 48.5314 63.1401 48.9286 63.1401H50.3929ZM84.2223 63.1437C84.5643 63.1611 84.8906 63.2377 85.1918 63.3625L84.9123 64.0389C84.6543 63.9319 84.3706 63.8723 84.0714 63.8723H82.6071V63.1401H84.0714L84.2223 63.1437ZM56.25 63.1401V63.8723H53.3214V63.1401H56.25ZM62.1071 63.1401V63.8723H59.1786V63.1401H62.1071ZM67.9643 63.1401V63.8723H65.0357V63.1401H67.9643ZM73.8214 63.1401V63.8723H70.8929V63.1401H73.8214ZM79.6786 63.1401V63.8723H76.75V63.1401H79.6786Z" fill="#C2C2C2"/>
<path d="M136.202 65.1401C137.195 65.1401 138 66.0356 138 67.1401C138 68.2447 137.195 69.1401 136.202 69.1401H98.7982C97.8051 69.1401 97 68.2447 97 67.1401C97 66.0356 97.8051 65.1401 98.7982 65.1401H136.202Z" fill="#DDDDDD"/>
<path d="M136.202 77.1401C137.195 77.1401 138 78.0356 138 79.1401C138 80.2447 137.195 81.1401 136.202 81.1401H98.7982C97.8051 81.1401 97 80.2447 97 79.1401C97 78.0356 97.8051 77.1401 98.7982 77.1401H136.202Z" fill="#DDDDDD"/>
<path d="M118.203 87.1401C119.196 87.1401 120 88.0356 120 89.1401C120 90.2447 119.196 91.1401 118.203 91.1401H98.7969C97.8045 91.1401 97 90.2447 97 89.1401C97 88.0356 97.8045 87.1401 98.7969 87.1401H118.203Z" fill="#DDDDDD"/>
<path d="M136.214 87.1401C137.201 87.1401 138 88.0356 138 89.1401C138 90.2447 137.201 91.1401 136.214 91.1401H124.786C123.799 91.1401 123 90.2447 123 89.1401C123 88.0356 123.799 87.1401 124.786 87.1401H136.214Z" fill="#DDDDDD"/>
<path d="M61.9198 91.256C61.3489 91.8269 60.4232 91.8269 59.8522 91.256C59.2813 90.685 59.2813 89.7594 59.8522 89.1884L72.4045 76.6361C72.9755 76.0652 73.9011 76.0652 74.4721 76.6361C75.043 77.2071 75.043 78.1328 74.4721 78.7037L61.9198 91.256Z" fill="#DDDDDD"/>
<path d="M72.5304 91.256C73.1013 91.8269 74.027 91.8269 74.598 91.256C75.1689 90.685 75.1689 89.7594 74.598 89.1884L62.0457 76.6361C61.4747 76.0652 60.5491 76.0652 59.9781 76.6361C59.4072 77.2071 59.4072 78.1328 59.9781 78.7037L72.5304 91.256Z" fill="#DDDDDD"/>
<path d="M136.202 98.1401C137.195 98.1401 138 99.0356 138 100.14C138 101.245 137.195 102.14 136.202 102.14H98.7982C97.8051 102.14 97 101.245 97 100.14C97 99.0356 97.8051 98.1401 98.7982 98.1401H136.202Z" fill="#DDDDDD"/>
</svg>
