<?xml version="1.0" encoding="UTF-8"?>
<svg id="b" data-name="레이어 2" xmlns="http://www.w3.org/2000/svg" viewBox="0 0 398.77 336.59">
  <defs>
    <style>
      .d {
        fill: #03bbde;
      }

      .e {
        fill: #04efe3;
      }

      .f {
        fill: #01d1e0;
      }

      .g {
        fill: #d601ec;
      }

      .h {
        fill: #00d4e2;
      }

      .i {
        fill: #03efe1;
      }

      .j {
        fill: #04ebe2;
      }

      .k {
        fill: #00267c;
      }

      .l {
        fill: #03eae0;
      }

      .m {
        fill: #002e87;
      }

      .n {
        fill: #00d6e3;
      }

      .o {
        fill: #01bdde;
      }

      .p {
        fill: #01d7e3;
      }

      .q {
        fill: #d600ec;
      }

      .r {
        fill: #03e8e0;
      }

      .s {
        fill: #af22ef;
      }
    </style>
  </defs>
  <g id="c" data-name="레이어 1">
    <g>
      <path class="k" d="m103.09,163.99c.87,0,1.74,0,2.61-.02,2.37-.01,4.74,0,7.12,0,2.57,0,5.13,0,7.7-.02,5.02-.02,10.04-.02,15.06,0,4.08,0,8.16,0,12.24,0,.58,0,1.16,0,1.76,0,1.18,0,2.36,0,3.54,0,11.07-.01,22.14,0,33.21,0,9.49.01,18.98,0,28.47-.01,11.03-.02,22.06-.03,33.09-.02,1.18,0,2.35,0,3.53,0q.87,0,1.76,0c4.07,0,8.15,0,12.22-.02,4.97-.01,9.93-.01,14.9,0,2.53,0,5.06.01,7.6,0,2.32-.01,4.64,0,6.97.01,1.23,0,2.46,0,3.69-.02,5.78.07,10.65,1.38,15.03,5.34,4.37,4.59,4.94,8.89,4.91,15.01,0,.69,0,1.38,0,2.09,0,1.46,0,2.91,0,4.37,0,2.21,0,4.43.01,6.64,0,1.42,0,2.84,0,4.26,0,.66,0,1.31.01,1.99-.06,7.12-1.74,12.13-6.62,17.31-5.99,5.64-14.17,6.83-21.99,8.06-.68.11-1.35.22-2.05.33-6.56.94-13.05,1.08-19.67,1.07-1.83,0-3.66.01-5.49.03-1.18,0-2.36,0-3.53,0-.54,0-1.08.01-1.63.02-5.52-.04-10.11-1.76-14.1-5.67-1.63-2.08-2.92-4.34-4.22-6.64q-.4-.7-.8-1.41c-.6-1.05-1.2-2.11-1.8-3.16-1.54-2.71-3.09-5.41-4.64-8.11-.25-.43-.5-.87-.75-1.31-3.62-6.26-8.26-12.31-15.54-14.38-2.54-.28-5.06-.28-7.61-.28-.73,0-1.46,0-2.22-.01-1.54,0-3.09,0-4.63,0-2.35,0-4.7-.02-7.05-.05-1.5,0-3.01,0-4.51,0-.7,0-1.4-.02-2.12-.03-4.47.04-7.44.81-11.09,3.41-.39.27-.78.55-1.18.83-5.39,4-8.29,11.18-11.42,16.93q-9.11,16.48-17.58,19.65c-1.93.31-3.82.31-5.77.28-.54,0-1.09,0-1.65,0-1.75,0-3.5-.03-5.26-.05-1.21,0-2.41-.02-3.62-.03q-32.06-.33-43.68-8.8c-3.72-3.9-5.87-7.97-5.91-13.35,0-.65-.01-1.3-.02-1.97,0-.7,0-1.4,0-2.12,0-.72,0-1.44-.01-2.19,0-1.53,0-3.06-.01-4.58,0-2.33-.02-4.66-.04-6.99,0-1.49,0-2.97,0-4.46,0-.69-.01-1.39-.02-2.1.01-5.37.77-9.37,4.45-13.51.41-.48.82-.96,1.24-1.46,5.26-4.29,10.55-4.9,17.16-4.85Z"/>
      <path class="i" d="m99.68,140.6c.89,0,1.78,0,2.68-.01,2.44,0,4.87,0,7.31,0,2.63,0,5.27,0,7.9-.01,5.15-.01,10.31-.02,15.46-.01,4.19,0,8.38,0,12.57,0,1.21,0,2.42,0,3.63,0,.6,0,1.2,0,1.82,0,11.38-.01,22.75-.01,34.13,0,10.39,0,20.78,0,31.17-.03,10.69-.02,21.37-.03,32.06-.03,5.99,0,11.99,0,17.98-.02,5.1-.01,10.21-.01,15.31,0,2.6,0,5.2,0,7.8,0,15.75-.07,28.59.8,40.7,12.2,2.26,2.47,3.94,5.19,5.56,8.1.25.44.5.87.75,1.32,2.24,4.18,3.05,8.36,3.05,13.08,0,.45.01.89.02,1.36.01,1.46.02,2.93.02,4.39,0,1.03.01,2.06.02,3.09,0,2.15.01,4.31.02,6.46,0,2.74.03,5.48.05,8.22.02,2.13.02,4.25.02,6.38,0,1.01,0,2.02.02,3.03.12,10.44-2.83,18.94-10.09,26.71-10.64,10.09-25.04,13.63-39.15,15.28-.55.06-1.09.13-1.66.19-8.53.94-17.09,1.17-25.66,1.26-1.13.01-2.27.03-3.4.05-11.5.21-21.87-1.91-30.63-9.99-6.09-5.93-9.98-13.13-13.72-20.69-1.9-3.76-4.08-7.89-8.22-9.45-2.67-.28-5.35-.22-8.03-.23q-1.1-.02-2.21-.04c-4.14-.01-7.02,0-10.27,2.69-1.06,1.4-1.88,2.63-2.72,4.15-.23.4-.46.8-.7,1.21-1.49,2.61-2.8,5.28-4.09,8-5.07,10.33-12.97,18.32-23.88,22.26-.43.17-.86.34-1.31.51-5.89,1.97-12.1,1.55-18.23,1.49-.6,0-1.21,0-1.83-.01q-47.94-.29-64.79-15.98c-7.86-8.3-10.19-17.25-10.09-28.37,0-.99,0-1.98,0-2.97,0-2.06.01-4.12.03-6.18.02-2.62.03-5.25.02-7.87,0-2.04,0-4.08.02-6.11,0-.97,0-1.93,0-2.9.02-12.35,2.51-20.8,11.03-30.06,2.7-2.65,5.66-4.45,9.01-6.15.38-.2.77-.39,1.16-.6,6.32-3.06,12.37-3.71,19.34-3.68Zm-26.54,20.42c-5.23,7.2-6.14,14.28-6.15,22.94,0,.84,0,1.68-.01,2.52,0,1.76,0,3.51,0,5.27,0,2.23-.02,4.46-.04,6.69-.01,1.74-.02,3.47-.02,5.21,0,1.22-.02,2.43-.03,3.65.04,8.51,2.58,15.49,8.22,21.9,13.29,13.05,34.82,13.25,52.24,13.6,1.36.03,2.71.06,4.07.1,12.71.36,23.06-.12,32.79-9.26,4.84-5.13,7.83-11.34,10.96-17.59,2.65-5.2,5.78-10.85,11.52-13.04,1.78-.19,3.56-.2,5.35-.2.52,0,1.04,0,1.58-.01,1.1,0,2.2,0,3.31,0,1.67,0,3.35-.02,5.02-.05,1.07,0,2.15,0,3.22,0,.5,0,.99-.02,1.5-.03,3.45.03,6.13.74,8.99,2.72,4.41,4.48,7.26,10.92,10.37,16.33,5.36,9.31,10.84,17.19,21.62,20.48,20.25,3.97,53.08,2.01,70.47-9.29,6.8-4.91,11.22-10.92,13.42-19.08.32-2.87.33-5.71.3-8.6,0-.81,0-1.63,0-2.44,0-1.69,0-3.39-.02-5.08-.02-2.15-.02-4.31,0-6.46,0-1.68,0-3.35,0-5.03,0-1.17,0-2.35,0-3.52-.1-9.89-3.22-18.18-10.15-25.35-6.92-6.34-14.88-7.16-23.94-7.13-.9,0-1.79,0-2.69-.01-2.45,0-4.89,0-7.34,0-2.65,0-5.29,0-7.94-.01-5.18-.01-10.35-.02-15.53-.01-4.21,0-8.42,0-12.63,0-1.21,0-2.43,0-3.64,0-.6,0-1.21,0-1.83,0-11.42-.01-22.84-.01-34.26,0-10.44,0-20.88,0-31.32-.03-10.73-.02-21.46-.03-32.19-.03-6.02,0-12.04,0-18.06-.02-5.12-.01-10.25-.01-15.37,0-2.61,0-5.22,0-7.84,0-2.39-.01-4.79,0-7.18,0-.86,0-1.73,0-2.59,0-9.69-.09-17.9,3.46-24.19,10.92Z"/>
      <path class="l" d="m80.46,12.89c.55.27,1.11.54,1.68.82,4.42,2.28,8.33,5.13,12.2,8.24.62.49,1.23.98,1.87,1.49,4.76,3.9,9.13,8.19,13.48,12.54.29.28.57.57.86.86,3.38,3.38,6.63,6.82,9.74,10.45.64.73,1.28,1.45,1.92,2.18,3.72,4.24,7.29,8.53,10.68,13.03.86,1.14,1.74,2.25,2.65,3.35q1.04,1.36,1.04,2.57c.73-.23,1.46-.47,2.22-.71,15.96-5,32.37-7.32,49.08-7.74.59-.02,1.18-.04,1.79-.06,23.79-.72,48.04,2.16,70.63,9.72q.27-.55.54-1.11c2.73-5.3,7.24-9.97,11.11-14.48,1.54-1.79,3.02-3.62,4.5-5.46,1.82-2.24,3.71-4.31,5.78-6.31,1.07-1.07,2.06-2.19,3.05-3.35,3.81-4.4,7.98-8.42,12.45-12.15.32-.27.64-.53.97-.81,8.33-6.94,18.31-15.06,29.4-16.32,5.43.55,10.43,3.17,13.92,7.36,13.57,18.45,14.12,43.28,13.69,65.27-.02,1.2-.04,2.41-.05,3.61-.14,14.43-1.98,29.21-5.6,43.19-.85,4.25-.73,6.74,1.33,10.46,1.23,2.43,1.89,5.06,2.62,7.68.16.55.32,1.09.49,1.66.87,3.06,1.36,5.69,1.17,8.87-1.3.02-2.59.03-3.89.04-.72,0-1.44.01-2.19.02q-1.78-.06-2.38-.66c-.17-.94-.31-1.88-.45-2.83-1.08-6.09-3.03-11.77-6.77-16.74-1.6-3.97.4-9.03,1.37-13.02,1.19-5.05,2.17-10.11,2.98-15.24.1-.62.2-1.23.3-1.87,1.01-6.55,1.47-12.96,1.51-19.59q0-.59,0-1.19c.01-2.09.02-4.19.03-6.28,0-1.69.02-3.38.04-5.07q.34-29.09-12.5-54.26c-2.06-1.87-3.4-2.11-6.16-2.11-10.66,1.8-20.6,11.38-28.03,18.71-.49.48-.98.96-1.48,1.45-1.67,1.64-3.34,3.28-5.01,4.93q-.79.78-1.6,1.58c-3.15,3.15-6.05,6.41-8.83,9.88-.94,1.17-1.89,2.31-2.87,3.44-3.74,4.3-7.15,8.78-10.47,13.41q-3.96,5.48-5.95,6.96c-1.66,0-2.67-.16-4.22-.6-.49-.13-.99-.26-1.49-.4-1.17-.32-2.34-.64-3.51-.97-10.87-3.04-21.89-4.75-33.06-6.31-1-.14-1.99-.29-2.99-.44-26.08-3.85-53.83-.32-78.94,6.98-2.3.64-3.78.96-6.15.54-3.13-2.56-5.3-6.29-7.63-9.55-6.14-8.3-12.84-16.6-20.27-23.78-1.07-1.07-2.03-2.18-2.99-3.33-7.69-8.87-18.8-18.65-30.06-22.48-3.33,0-5.53.51-7.97,2.83-5.68,7.32-7.97,16.62-9.64,25.54-.1.54-.2,1.07-.31,1.63-1.56,8.82-1.51,17.67-1.5,26.59,0,.63,0,1.27,0,1.92.03,17.84,1.54,35.32,5.78,52.7.76,3.41.9,5.89-1.02,8.94q-.41.6-.84,1.22c-2.85,4.21-4.23,9.76-4.75,14.78q-.26,2.07-1.47,3.28-1.7.12-3.7.08c-.66-.01-1.32-.02-2-.03-.51-.01-1.02-.03-1.54-.04-.8-2.63-.26-4.81.34-7.43.11-.48.21-.95.32-1.44q2.71-11.4,5.37-14.06c.18-3.13-.3-5.86-1.09-8.86-3.76-15.15-4.55-30.65-4.5-46.2,0-2.39,0-4.78,0-7.17,0-10.56.41-20.75,2.73-31.09.13-.58.26-1.17.4-1.77,2.47-10.61,6.53-22.05,15.98-28.39,6.49-3.65,11.49-2.18,17.88.96Z"/>
      <path class="q" d="m67.19,256.11c1.65,1.9,2.87,4.02,4.16,6.18,9.7,15.54,25.21,26.96,41.1,35.47.39.21.79.43,1.19.65,17.89,9.69,37.92,15.5,57.95,18.66.58.1,1.16.2,1.76.3,18.58,3.04,38.83,2.74,57.38-.3.51-.08,1.03-.16,1.56-.24,30.51-4.97,59.3-17.59,81.73-38.98.47-.44.94-.88,1.43-1.33,5.53-5.3,10.14-11.45,14.12-17.98q.75-1.21,1.35-1.82c3.03-.27,5.7-.21,8.45,1.21-2.83,9.34-10.62,17.51-17.28,24.48-.8.84-1.59,1.69-2.38,2.54-4.48,4.68-9.44,8.49-14.74,12.21-.39.28-.79.55-1.19.84-11.15,7.75-23.45,13.89-36.23,18.47-.56.2-1.11.4-1.68.61-11.57,4.14-23.33,7.14-35.43,9.24-.55.1-1.09.19-1.66.29-9.08,1.47-18.36,1.47-27.54,1.48-.54,0-1.08,0-1.63,0-13.11,0-25.82-1.35-38.66-4.08-1.36-.29-2.73-.56-4.1-.82-37.27-7.47-72.33-26.8-94.5-58.02q-3.62-5.48-3.62-7.85,5.72-2.29,8.45-1.21Z"/>
      <path class="m" d="m303.17,195.16l1.21.6-1.21-.6Z"/>
      <path class="r" d="m196.54.03c1.8,0,3.59-.01,5.38-.03,8.33-.03,16.37.74,24.59,2.03.76.12,1.52.23,2.3.35,20.76,3.39,40.09,10.49,58.05,21.37-.3,2.35-.47,3.45-1.96,5.36-1.9,1.47-2.36,1.58-4.68,1.28q-1.63-.84-3.51-2.04c-9.3-5.62-19.92-9.33-30.29-12.45q-.62-.19-1.26-.39c-6.69-2.07-13.49-3.24-20.4-4.28-.42-.06-.85-.13-1.28-.2-8.65-1.3-17.2-1.95-25.95-1.77q-.8.02-1.62.03c-26.21.61-52.16,6.07-75.04,19.3q-3.19,1.79-5.32,1.75c-2.08-.91-3.06-2.35-4.32-4.19v-2.41c1.44-1.07,2.78-1.93,4.34-2.79.46-.26.92-.52,1.4-.79,1.5-.83,3.01-1.65,4.52-2.45.47-.25.95-.51,1.44-.77,13.03-6.86,27.31-11.34,41.76-14.04.92-.18,1.84-.37,2.76-.58C176.98.19,186.83,0,196.54.03Z"/>
      <path class="e" d="m33.39,106.44c1.67.17,2.31.49,3.47,1.74,2.57,6.42-.51,12.56-2.94,18.52-.55,1.37-1.09,2.74-1.63,4.11-.35.9-.71,1.79-1.07,2.69-1.9,4.79-3.54,9.66-5.08,14.58.57.08,1.14.16,1.72.24,1.96.37,2.84.87,4.31,2.17-.12,2.09-.57,2.98-1.92,4.6-1.99,1.56-4.03,1.85-6.49,2.3-3.75.72-6.17,1.46-8.49,4.56-5.3,8.32-5.52,17.74-5.53,27.3,0,.75,0,1.49,0,2.26,0,1.57,0,3.14,0,4.71,0,2.38-.01,4.75-.02,7.13q-.42,17.41,6.77,32.83c3.46,3.03,7.08,4.1,11.47,5.43v7.85c-8.16-.42-14.01-2.88-19.69-8.79C.81,231.7.12,219.28.07,208.09c0-.66,0-1.31-.01-1.99,0-1.39,0-2.77-.01-4.16,0-2.07-.02-4.15-.04-6.22-.07-14.71.24-31.3,11.13-42.54,1.26-1.21,2.3-2.05,3.86-2.85,1.83-1.27,2.05-1.98,2.57-4.11.16-.62.32-1.23.48-1.87.16-.66.32-1.32.49-2,.36-1.38.73-2.76,1.1-4.14q.27-1.02.55-2.07c2.75-9.9,6.81-21.6,13.21-29.7Z"/>
      <path class="j" d="m363.52,106.44h1.81c6.93,11.3,12.15,24.14,15.13,37.07q1.04,4.68,4.41,7.85.71.39,1.44.79c5.47,3.07,8.44,10.78,10.29,16.49,1.67,6.52,2.11,12.97,2.11,19.68,0,.83,0,1.66,0,2.49,0,1.73,0,3.46,0,5.19,0,1.75,0,3.5.01,5.25q.19,29.81-9.86,40.99c-4.63,4.3-11.05,7.85-17.5,7.85v-8.45c1.21-.42,2.41-.85,3.66-1.28,5.02-1.95,8.25-4.21,10.75-9.04,2.84-7.28,3.79-15.15,3.82-22.91q0-.97.01-1.96c0-1.37,0-2.74.01-4.1,0-2.05.02-4.09.04-6.14q.18-16.74-5.02-32.42c-.21-.39-.41-.77-.62-1.17-1.26-2.12-2.63-3.16-4.81-4.26q-1.9-.38-3.89-.57c-4.01-.55-5.93-1.35-8.75-4.26q-.64-1.21-.64-2.45c.87-1.69,1.92-2.19,3.62-2.98h2.41c-.96-2.94-1.93-5.88-2.9-8.82-.33-1-.65-1.99-.98-2.99-1.84-5.64-3.77-11.13-6.29-16.51-1.31-3.5-1.54-7.46-.21-11q.61-1.01,1.93-2.33Z"/>
      <path class="g" d="m326.1,49.71c.3,1.13.58,2.26.87,3.39.16.63.32,1.26.49,1.91,1.34,6.49,1.18,13.33,1.17,19.93,0,.41,0,.81,0,1.23-.01,6.58-.23,13.13-.6,19.7-.04.79-.08,1.59-.13,2.4q-.86,13.52-3,17.81c-2.76-.85-4.4-2.39-6.34-4.45-1.6-1.67-3.15-3.27-5-4.66-1.52-1.3-1.63-1.65-1.94-3.56-.04-1.16-.04-2.32-.02-3.48q.01-1.01.02-2.05c.02-1.41.04-2.82.07-4.23.04-4-.23-7.5-1.28-11.37-2.56,0-3.43,1.18-5.28,2.85-1.99,2.01-3.74,4.19-5.48,6.41q-2.65,3.23-4.33,4.62c-2.23-.03-3.95-.97-5.88-2.04-.47-.25-.94-.51-1.42-.77q-1.14-.82-1.74-2.63c1.34-2.57,3.13-4.89,4.83-7.24.27-.38.54-.76.83-1.15,5.86-8.08,12.16-15.55,19.17-22.65q.66-.67,1.33-1.36,8.64-8.63,13.68-8.63Z"/>
      <path class="g" d="m72.62,49.1c5.17.49,9.53,5.1,12.95,8.71q1.01,1.07,2.66,2.3c2.28,1.85,4,4.16,5.83,6.45,1.25,1.55,2.54,3.06,3.84,4.57,4.08,4.71,7.74,9.71,11.3,14.81.53.75,1.06,1.49,1.62,2.22.97,1.33,1.62,2.23,1.66,3.91-.9,1.54-1.91,2.01-3.5,2.78-.52.27-1.04.53-1.57.8-1.95.63-2.71.7-4.61-.09-1.3-1.21-2.37-2.57-3.47-3.96-3.29-4.01-6.68-7.63-11.01-10.52-1.11,2.82-1.32,5.25-1.22,8.23,0,.89.01,1.79.02,2.68.01,1.39.03,2.77.09,4.16q.28,8.13-2.13,11.12c-1.59,1.7-3.37,3.15-5.2,4.58-.81.74-1.61,1.48-2.41,2.23q-1.81,1.4-3.62,1.4c-4.4-12.13-3.13-26.66-3.13-39.4,0-2.14,0-4.27-.02-6.41,0-1.67,0-3.33,0-5,0-1.16,0-2.33-.01-3.49q.03-10.16,1.96-12.09Z"/>
      <path class="d" d="m352.79,260.26c.54,0,1.08,0,1.64,0,.54,0,1.08,0,1.64,0q1.42.08,2.62.68c.21,4.32-.27,8.01-1.51,12.15q-.24.82-.49,1.66c-6.05,19.62-20.7,33.7-37.83,44.13-.49.26-.97.51-1.48.77-3.29,1.75-4.51,3.93-6.06,7.3-1.72,2.96-4.15,4.25-7.34,5.27q-.97.31-1.96.63t-2.03.63c-.66.21-1.32.43-2,.65q-9.31,2.94-12.82,1.61c-2.38-2.1-4.1-4.6-4.48-7.8-.01-.44-.03-.88-.04-1.33q-.03-.65-.07-1.31c.44-2.76,1.42-5.41,3.65-7.22,1.15-.66,2.3-1.21,3.51-1.74.43-.2.85-.39,1.29-.6,1.28-.59,2.58-1.15,3.88-1.7.73-.32,1.46-.64,2.21-.97,3.61-1.5,6.55-2.59,10.47-2.04l3.62,1.81c5.89-.41,11.23-5.15,15.8-8.64.33-.25.67-.51,1.01-.77,1.55-1.21,2.6-2.21,3.7-3.87-1.39-1-2.79-1.99-4.22-3.02.95-2.6,2.22-4.87,3.62-7.24,1.8.29,3.02.96,4.53,1.92q1.91,1.28,3.29.8c1.74-1.28,2.76-2.91,3.88-4.72q.35-.57.72-1.14c4.6-7.47,7.59-15.48,9.08-24.12.35-1.61.51-1.69,2.18-1.79Z"/>
      <path class="o" d="m197.85,237.83c1.35-.01,2.7-.04,4.04-.06.86,0,1.73-.01,2.59-.02q1.17-.01,2.37-.03c2.54.33,3.81,1.09,5.79,2.7,1.48,2.23,1.62,3.59,1.56,6.22-.7,3.16-3.09,5-5.41,7.09-.48.46-.96.91-1.45,1.39q-3.44,3.25-4.96,4.01,2.18,8.07,7.85,13.88c4.3,1.74,8.85,1.96,13.16.19,3.71-1.86,5.76-4.58,7.96-8.03q.6-.6,2.68-.72,2.15.11,3.36,1.32c.54,3.8-.3,6.18-2.4,9.38-4.49,5.48-10.04,7.61-16.91,8.31-6.62.29-12.04-1.6-16.99-5.99q-1.12-1.02-2.92-.84c-1.17.79-2.22,1.69-3.31,2.59-4.42,2.99-8.3,3.83-13.59,3.74q-.84.01-1.71.03c-5.94-.03-10.88-2.29-15.19-6.37-2.13-2.45-3.82-4.75-3.96-8.07q.34-2.19,1.02-3.39c1.72-.92,2.83-.92,4.75-.6,1.49,1.49,2.42,3.04,3.47,4.87,2.03,2.65,4.52,3.67,7.66,4.64.51.05,1.02.1,1.55.15.39.04.78.08,1.18.12,3.78.2,7.06-.5,10.29-2.53,3.42-3.46,4.72-8.11,6.04-12.67-1.63-1.66-3.29-3.27-5.01-4.84-.69-.65-1.39-1.3-2.08-1.95q-.53-.47-1.08-.95c-2.37-2.26-3.25-4.04-3.4-7.33.14-1.67.61-2.47,1.8-3.63q.49-.5.99-1.02c2.76-2.35,6.83-1.56,10.28-1.57Z"/>
      <path class="h" d="m102.19,183.09c9.32,2.62,18.58,5.4,27.8,8.34,2.66.85,5.34,1.66,8.02,2.43,4.37,1.25,8.69,2.62,12.98,4.09.52.17,1.04.35,1.58.53.49.17.97.34,1.47.51.43.15.86.3,1.31.45,1.27.6,2.03,1.31,2.96,2.36-1.19,1.62-2.4,3.23-3.62,4.83-.27.37-.54.73-.81,1.11-4.33,5.56-11.01,8.8-17.9,9.75-9.69.63-17.71-1.44-25.43-7.68-5.19-4.92-8.78-11.97-9.05-19.16,0-.74,0-1.48,0-2.24,0-.74,0-1.49,0-2.25q.08-1.86.68-3.07Z"/>
      <path class="n" d="m291.7,185.5c.28,9.21-1.27,16.55-7.39,23.76-5.78,6.04-13.06,8.73-21.31,8.98-8.16-.1-14.65-2.66-20.78-8-1-1.2-1.97-2.44-2.9-3.7-.48-.64-.95-1.27-1.45-1.93q-1.08-1.62-1.08-2.82c6.64-2.38,13.3-4.66,20.01-6.82,1.41-.46,2.83-.92,4.24-1.38,5.01-1.62,10.02-3.19,15.08-4.64,3.61-1.04,7.13-2.28,10.66-3.57,1.96-.51,3.02-.47,4.93.11Z"/>
      <path class="f" d="m42.78,168.15c.46.04.92.08,1.4.12,1.58.41,2.09.85,3.09,2.14q.23,1.42.23,3.12c0,.65.01,1.29.02,1.96,0,.71,0,1.42-.01,2.15,0,.75,0,1.49,0,2.26,0,2.05,0,4.09,0,6.14,0,2.14,0,4.28,0,6.42,0,3.59,0,7.19,0,10.78,0,4.16,0,8.31,0,12.47,0,3.57,0,7.13,0,10.7,0,2.13,0,4.26,0,6.39,0,2.37,0,4.75-.01,7.12q0,1.06.01,2.15c0,.64-.01,1.29-.02,1.95,0,.56,0,1.12,0,1.7-.08.44-.15.88-.23,1.34-2.21,1.47-3.41,1.41-6.04,1.43-.75.02-1.49.03-2.26.05q-1.96-.28-2.97-1.31c-.94-1.64-1.03-2.62-1.03-4.5,0-.63-.01-1.26-.02-1.91,0-.69,0-1.37,0-2.08,0-.73,0-1.45-.01-2.2,0-1.99-.01-3.98,0-5.97,0-1.66,0-3.32,0-4.99,0-3.92,0-7.84,0-11.76,0-4.04,0-8.09-.02-12.13-.01-3.47-.02-6.95-.01-10.42,0-2.07,0-4.15,0-6.22-.01-2.31,0-4.62,0-6.94,0-.69-.01-1.37-.02-2.08,0-.63.01-1.26.02-1.91,0-.55,0-1.09,0-1.66.4-1.92,1.23-2.64,2.72-3.87,1.77-.69,3.29-.64,5.17-.45Z"/>
      <path class="p" d="m358.35,168.11c.46.03.92.07,1.39.1,1.84.52,2.56,1.34,3.77,2.8q.3,1.45.3,3.09c0,.62.01,1.25.02,1.89q-.01,1.02-.02,2.07c0,.72,0,1.44,0,2.18,0,1.97,0,3.95-.02,5.92-.01,2.07,0,4.13,0,6.2,0,3.47-.01,6.94-.03,10.41-.02,4.01-.03,8.02-.02,12.03,0,4.27,0,8.54-.02,12.81,0,1.23,0,2.46,0,3.69,0,2.29-.01,4.59-.03,6.88,0,.68,0,1.36,0,2.07q0,.94-.02,1.89c0,.54,0,1.08,0,1.64-.17,1.56-.52,2.54-1.36,3.86-1.71.85-3.19.73-5.09.75-.7.02-1.39.03-2.11.05q-1.85-.2-2.86-.92c-1.08-1.46-1.03-2.38-1.04-4.18,0-.64-.01-1.28-.02-1.94,0-.7,0-1.4,0-2.13,0-.74,0-1.48-.01-2.24,0-2.03-.01-4.05,0-6.08,0-1.69,0-3.38,0-5.08,0-3.99,0-7.98,0-11.97,0-4.12,0-8.24-.02-12.36-.01-3.54-.02-7.07-.01-10.61,0-2.11,0-4.22,0-6.34-.01-2.35,0-4.71,0-7.06,0-.7-.01-1.4-.02-2.13,0-.64.01-1.28.02-1.94,0-.56,0-1.11,0-1.69q.3-1.41,1.41-2.47c2.03-1.17,3.5-1.45,5.79-1.24Z"/>
      <path class="s" d="m187.67,250.72c-2.06-2.05-2.97-3.64-3.06-6.57.5-2.42,2.06-3.98,3.89-5.54,2.7-1.35,6.35-.77,9.35-.78,1.35-.01,2.7-.04,4.04-.06.86,0,1.73-.01,2.59-.02q1.17-.01,2.37-.03c2.54.33,3.81,1.09,5.79,2.7,1.48,2.23,1.61,3.59,1.56,6.23-.68,3.13-2.99,4.93-5.29,7.01-.46.45-.93.89-1.41,1.35q-5.31,5.04-8.44,5.59c-3.44-.6-5.46-3.68-7.6-6.22"/>
    </g>
  </g>
</svg>