<svg width="100" height="39" viewBox="0 0 100 39" fill="none" xmlns="http://www.w3.org/2000/svg">
<rect x="40.209" y="10.3486" width="35.7907" height="3.97674" fill="#022873"/>
<rect x="40.209" y="14.3262" width="3.53488" height="22.093" fill="#022873"/>
<rect x="53.9072" y="14.3262" width="3.53488" height="22.093" fill="#022873"/>
<rect x="76" y="14.3262" width="3.53488" height="22.093" fill="#8294D0"/>
<rect x="91.4648" y="14.3262" width="3.53488" height="22.093" fill="#8294D0"/>
<rect x="76" y="10.3486" width="19" height="3.97674" fill="#8294D0"/>
<rect y="3.2793" width="16.3488" height="16.1279" fill="#022873"/>
<rect y="19.4072" width="16.3488" height="3.97674" fill="#8294D0"/>
<rect x="16.3486" y="19.4072" width="10.6047" height="3.97674" fill="#022873"/>
<rect x="12.8145" y="23.3838" width="3.53488" height="13.2558" fill="#022873"/>
<rect y="23.3838" width="3.53488" height="13.2558" fill="#022873"/>
<rect x="23.4189" y="23.3838" width="3.53488" height="13.2558" fill="#022873"/>
<path d="M58.2998 8.61035H64.2448H76.0485V10.3677H58.2998V8.61035Z" fill="#027363"/>
<path d="M64.2744 8.61076L64.6259 0H76.6634L76.0483 8.61076H64.2744Z" fill="#8294D0"/>
<path d="M65.5928 7.55672L66.0321 1.14258H75.4336L74.9065 7.55672H65.5928Z" fill="#D705F2"/>
</svg>
