<?xml version="1.0" encoding="UTF-8"?>
<svg id="b" data-name="레이어 2" xmlns="http://www.w3.org/2000/svg" xmlns:xlink="http://www.w3.org/1999/xlink" viewBox="0 0 296 283.94">
  <defs>
    <style>
      .e {
        fill: #f21ffa;
      }

      .f {
        fill: #05f2db;
      }

      .g {
        fill: url(#d);
      }
    </style>
    <linearGradient id="d" data-name="무제 그라디언트 13" x1="148" y1="355.17" x2="148" y2="69.32" gradientUnits="userSpaceOnUse">
      <stop offset=".22" stop-color="#c0f"/>
      <stop offset=".3" stop-color="#a332f4"/>
      <stop offset=".48" stop-color="#3eb0db"/>
      <stop offset=".58" stop-color="#0fc"/>
    </linearGradient>
  </defs>
  <g id="c" data-name="레이어 1">
    <path class="g" d="m68,7.62c4.59,3.37,8.82,7.13,13,11,.89.82,1.78,1.63,2.69,2.48,10.32,9.91,18.32,21.73,26.31,33.52,1.29-.22,2.58-.43,3.91-.66,21.86-3.4,44.88-4.36,66.67,0q3.5.78,7.42.66,1.46-1.33,2.59-3.23c.47-.7.93-1.39,1.42-2.11q.74-1.13,1.49-2.29c5.64-8.32,11.75-15.93,18.5-23.38q.99-1.12,2-2.26c8.9-9.5,21.69-20.08,35.06-21.37,6.24.99,10.59,3.89,14.7,8.68,18.38,26.06,18.47,68.72,13.39,98.73-.56,3.14-1.16,6.24-1.92,9.34-.31,3.84.85,6.04,2.52,9.5,5.94,12.87,7.43,25.42,7.38,39.44,0,1.05,0,2.1.01,3.18,0,5.36-.19,10.48-1.14,15.76h11c.33,1.65.66,3.3,1,5q-2,2-4.82,2.2c-1.09-.02-2.18-.05-3.3-.07-1.1-.02-2.19-.04-3.32-.05-.84-.02-1.69-.05-2.55-.07-.07.56-.15,1.12-.23,1.7-1.32,8.02-4.41,14.97-7.77,22.3.66.18,1.33.36,2.01.55,4.72,1.34,8.92,2.6,12.99,5.45-.33,1.65-.66,3.3-1,5-4.11,1.17-6.26.82-10.12-.94q-3.78-1.7-7.88-2.06c-1.51,1.93-2.82,3.82-4.12,5.88-4.13,6.23-8.71,11.71-13.88,17.12q-.9,1.01-1.82,2.04c-20.5,22.18-55.93,33.64-85.4,35.06-2.26.06-4.52.08-6.78.1-.83,0-1.66.01-2.52.02-1.75,0-3.51.02-5.26.02-2.62,0-5.24.04-7.86.07-37.77.24-73.93-12.37-101.15-38.96-6.29-6.4-11.71-13.59-16.21-21.35-.74.22-1.47.43-2.23.66q-1.46.42-2.96.84t-2.92.84c-2.76.63-5.07.86-7.89.66q-1-1-1.19-3.44.19-2.56,2.19-4.56c1.85-.61,3.73-1.14,5.62-1.62,1-.26,2.01-.52,3.04-.79.77-.19,1.54-.39,2.34-.59q-.32-.94-.64-1.9c-.96-2.83-1.91-5.65-2.86-8.48-.33-.98-.67-1.97-1.01-2.98-.32-.94-.63-1.88-.96-2.85-.29-.87-.59-1.74-.89-2.63q-.64-2.15-.64-4.15c-.84.02-1.69.05-2.55.07-1.1.02-2.19.04-3.32.05-1.09.02-2.18.05-3.3.07q-2.82-.2-4.82-2.2.56-4.56,2-6c1.69-.07,3.38-.08,5.06-.06.92,0,1.84.02,2.79.03.71.01,1.42.02,2.15.04-.16-.88-.32-1.76-.48-2.66-2.59-18.33-2.39-39.14,6.92-55.52,3.3-6.77,2.24-11.58.95-18.69-1.74-10.42-1.75-20.77-1.76-31.31,0-.89-.01-1.77-.02-2.68-.15-21.22,1.14-50.31,16.12-67.06,10.58-9.74,23.16-6.19,34.27.93Zm-31,8c-10.38,17.13-11.4,38.98-11.31,58.5,0,.73,0,1.46,0,2.21.02,11.69.89,23.08,2.66,34.65.98,6.65.87,10.84-2.09,17.02-7.9,17.69-9.98,37.49-6.25,56.62,1.51,1.51,3.03,1.39,5.12,1.68.85.12,1.7.24,2.57.37.91.13,1.81.25,2.74.38,6.9,1,13.74,2.08,20.56,3.56q-.5,2.97-1,6c-.68-.09-1.35-.18-2.05-.28-3.07-.41-6.13-.82-9.2-1.22-1.06-.14-2.13-.29-3.22-.43q-1.54-.2-3.11-.41c-.94-.13-1.89-.25-2.86-.38q-2.8-.35-6.57-.28c1.06,7.45,3.34,13.44,7,20,1.02-.2,2.05-.41,3.11-.62.65-.13,1.31-.26,1.98-.4q1.04-.21,2.1-.42c2.6-.52,5.21-1.04,7.81-1.56.99-.2,1.97-.39,2.99-.6.66-.13,1.33-.27,2.01-.4.33,1.65.66,3.3,1,5-4.11,2.74-8.28,3.24-13.07,4.22q-3.03.54-4.93,2.78c21.98,30.15,50.95,46.7,87.89,52.62,19.11,2.68,39.08,2.54,58.11-.62.94-.1,1.88-.2,2.85-.3,29.26-3.46,57.3-21.75,75.36-44.49q3.03-4.22,3.79-9.21c-1.13-.31-2.26-.63-3.43-.95-1.48-.43-2.96-.86-4.45-1.3q-1.12-.31-2.26-.62-5.48-1.63-7.43-4.18-.43-1.95.57-3.95c5.13.63,9.97,1.68,14.94,3.06.68.19,1.37.37,2.07.56,1.66.45,3.33.91,4.99,1.37,3.7-6.73,5.89-13.63,8-21-7.65-.22-14.82.07-22.34,1.56-2.61.43-5.02.51-7.66.44-.33-1.32-.66-2.64-1-4,4.23-2.33,7.78-3.52,12.56-4.12,1.21-.15,2.42-.31,3.67-.47,5.58-.6,11.17-1.05,16.77-1.41,3.59-20.13,2.38-44.99-8.2-63.05-1.13-2.75-.59-4.56.02-7.45,2.46-12.01,2.4-24.21,2.43-36.42,0-2.75.04-5.5.07-8.25.11-17.8-.94-41.02-12.79-55.36-2.74-2.66-4.74-4.32-8.53-5.11-13.22.73-26.97,16.24-35.56,25.25-7.99,8.97-15.46,18.94-21.44,29.38-5.18-.34-10.3-.85-15.41-1.73-19.04-3.25-37.49-2.82-56.59-.27-.72.1-1.44.19-2.18.29-3.95.54-7.89,1.11-11.82,1.71-.38-.63-.76-1.26-1.14-1.91-12.15-19.74-30.01-44.47-52.86-52.09-6.97-.81-10.58.44-15,6Z"/>
    <path class="f" d="m148,184.31c.79,0,1.59,0,2.41,0q9.36.09,12.59,3.32c.54,3.19.44,5.27-1.23,8.07-1.99,2.67-3.93,5.2-6.44,7.4-2.2,2.54-1.73,5.02-1.61,8.25.41,3.36,1.32,5.53,3.28,8.29,4.37,2.98,7.77,3.53,13,3q5.9-1.11,10.18-4.85c1.07-2.78,1.97-5.6,2.85-8.45q.98-1.71,2.95-2.57c.67-.05,1.34-.09,2.02-.14q2,2,2.31,5.25c-.51,6.12-2.7,9.41-7.12,13.5-6.07,4.97-11.36,5.69-19.08,5.58-6.27-.66-11.55-3.53-17.11-6.33-.54.62-1.07,1.24-1.62,1.88-5.12,4.58-10.82,4.51-17.41,4.38-7.08-.6-11.94-3.34-16.97-8.25-2.54-3.46-2.24-6.81-2-11q1-1,3.56-1.06,1.21.03,2.44.06c.23.54.46,1.09.7,1.64,1.49,3.27,2.75,5.85,5.43,8.29,5.51,2.04,10.68,2.78,16.31.94,3.04-2.23,4.23-3.32,5.56-6.88.51-3.76.61-7.25,0-11q-2.08-2.92-5-5-4.95-4.84-5.12-8.69c3.01-6.19,9.13-5.75,15.12-5.62Z"/>
    <path class="e" d="m247,34.62c2.91,5.92,4.83,11.41,5.75,17.94q.18,1.26.37,2.54c1.74,13.46,2.25,28.11-.12,41.53q-15.96-13.64-16.21-16.04c-.04-.87-.07-1.75-.11-2.65-.04-.94-.08-1.89-.13-2.86-.04-.99-.08-1.99-.12-3.01-.04-1-.09-1.99-.13-3.02-.11-2.47-.21-4.94-.31-7.42-4.41,3.74-8.58,7.29-12,12-3.96-.57-6.67-1.81-10-4,1.59-4.87,4.37-8.53,7.44-12.56q.79-1.05,1.6-2.12,15.9-20.75,23.96-20.32Z"/>
    <path class="e" d="m51,34.62c5.93.39,8.83,4.14,12.6,8.36,5.09,5.98,9.74,12.32,14.4,18.64q.74,1,1.5,2.01,3.5,4.76,3.5,6.99c-1.29.67-2.58,1.34-3.88,2-.72.37-1.44.74-2.18,1.12q-1.95.88-3.95.88-1.62-1.64-3.44-3.81-3.11-3.76-6.56-7.19h-2c.03.55.05,1.11.08,1.68q.61,16.89-3.53,21.88-6.6,6.45-10.55,6.45c-.33.99-.66,1.98-1,3h-2c-4.2-18.34-2.18-42.51,5-60l2-2Z"/>
    <path class="f" d="m220,133.62q1.94,1.06,3,3,.5,3.44,0,7-2.11,1.93-5,4c-.53.38-1.05.77-1.6,1.16-1.69,1.21-3.39,2.4-5.09,3.59-.58.41-1.16.82-1.76,1.25q-4.32,3-6.55,3v2c.64.11,1.27.21,1.93.32,4.16.92,8.15,2.22,12.2,3.55q1.22.38,2.46.78t2.36.78c.71.23,1.41.46,2.14.69,2.2,1.01,3.45,1.94,4.91,3.88q-.33,6.33-3,9c-7.84.89-14.49-1.44-21.79-4.05-1.96-.7-3.93-1.37-5.9-2.04q-11.03-3.85-15.31-7.91-.62-2.94,0-6c4.08-4.63,9-8.25,13.88-12,.78-.6,1.55-1.21,2.36-1.83,2.25-1.74,4.51-3.46,6.77-5.17.66-.51,1.32-1.01,2-1.53,4.22-3.15,6.68-4.29,12-3.47Z"/>
    <path class="f" d="m71.28,183.36q-1.94-1.06-3-3-.5-3.44,0-7,2.11-1.93,5-4c.53-.38,1.05-.77,1.6-1.16,1.69-1.21,3.39-2.4,5.09-3.59.58-.41,1.16-.82,1.76-1.25q4.32-3,6.55-3v-2c-.64-.11-1.27-.21-1.93-.32-4.16-.92-8.15-2.22-12.2-3.55q-1.22-.38-2.46-.78t-2.36-.78c-.71-.23-1.41-.46-2.14-.69-2.2-1.01-3.45-1.94-4.91-3.88q.33-6.33,3-9c7.84-.89,14.49,1.44,21.79,4.05,1.96.7,3.93,1.37,5.9,2.04q11.03,3.85,15.31,7.91.62,2.94,0,6c-4.08,4.63-9,8.25-13.88,12-.78.6-1.55,1.21-2.36,1.83-2.25,1.74-4.51,3.46-6.77,5.17-.66.51-1.32,1.01-2,1.53-4.22,3.15-6.68,4.29-12,3.47Z"/>
  </g>
</svg>