<?xml version="1.0" encoding="UTF-8"?>
<svg id="b" data-name="레이어 2" xmlns="http://www.w3.org/2000/svg" viewBox="0 0 480.37 92.43">
  <defs>
    <style>
      .d {
        fill: #03bbde;
      }

      .e {
        fill: #02e9e0;
      }

      .f {
        fill: #04efe3;
      }

      .g {
        fill: #01ddde;
      }

      .h {
        fill: #01d1e0;
      }

      .i {
        fill: #d601ec;
      }

      .j {
        fill: #00d4e2;
      }

      .k {
        fill: #03efe1;
      }

      .l {
        fill: #02e2de;
      }

      .m {
        fill: #02e7de;
      }

      .n {
        fill: #04ebe2;
      }

      .o {
        fill: #00267c;
      }

      .p {
        fill: #03eae0;
      }

      .q {
        fill: #002e87;
      }

      .r {
        fill: #02e8df;
      }

      .s {
        fill: #00d6e3;
      }

      .t {
        fill: #01bdde;
      }

      .u {
        fill: #01d7e3;
      }

      .v {
        fill: #d600ec;
      }

      .w {
        fill: #03e8e0;
      }

      .x {
        fill: #af22ef;
      }
    </style>
  </defs>
  <g id="c" data-name="레이어 1">
    <g>
      <path class="r" d="m471.89,1.71c.61-.01,1.23-.02,1.86-.04q.88,0,1.78,0c.54,0,1.08-.01,1.63-.02q1.41.22,2.5,1.03.72.99.71,2.57c-.11.65-.22,1.3-.34,1.97q-.19,1.16-.39,2.33c-.16.86-.32,1.71-.47,2.57-.07.42-.15.84-.22,1.27-1.42,8.02-3.15,15.98-4.85,23.95-1.62,7.63-3.12,15.28-4.53,22.95-1.01,5.49-2.1,10.97-3.28,16.43-.74,3.47-1.33,6.93-1.81,10.45-.45,1.82-.81,2.74-2.2,4.01q-1.79.3-3.96.3-1.17,0-2.36,0c-.4,0-.81-.01-1.23-.02-1.24-.02-2.48-.01-3.72,0q-4.5-.03-6.24-.28c-1.24-1.86-1.49-2.84-1.86-5-.11-.65-.23-1.3-.34-1.97-.12-.7-.24-1.4-.36-2.12-1.03-5.8-2.19-11.54-3.55-17.28-1.34-5.68-2.52-11.34-3.55-17.09-.39-2.01-.8-4.03-1.21-6.04-1.66,6.8-3.12,13.62-4.46,20.49-.42,2.13-.85,4.26-1.28,6.38-.24,1.21-.49,2.41-.73,3.62-.23,1.16-.47,2.32-.71,3.49-.82,4.07-1.56,8.13-2.1,12.25-.44,1.7-.72,2.31-2.19,3.26q-1.78.23-3.94.24c-.78,0-1.55,0-2.35,0-.4,0-.81,0-1.22-.01-1.23,0-2.46,0-3.7.01-.78,0-1.55,0-2.35,0-.71,0-1.42,0-2.16,0-2.01-.26-2.37-.51-3.59-2.04-.37-1.72-.65-3.38-.87-5.12-.15-1.05-.3-2.09-.45-3.13-.08-.53-.16-1.07-.24-1.62-.38-2.46-.86-4.9-1.35-7.33-.1-.48-.19-.95-.29-1.44-.3-1.48-.6-2.96-.9-4.43-.43-2.12-.86-4.24-1.28-6.35-.11-.52-.21-1.05-.32-1.59-.99-4.9-1.94-9.82-2.88-14.73-1.04-5.42-2.12-10.82-3.27-16.22-.95-4.47-1.8-8.96-2.61-13.47-.13-.69-.25-1.37-.38-2.08-.11-.63-.22-1.27-.34-1.92-.1-.54-.19-1.09-.29-1.65-.22-1.76-.27-3.45-.2-5.22,1.58-1.58,5.95-.8,8.07-.83.7-.02,1.4-.05,2.13-.07q1.01-.01,2.04-.02c.62-.01,1.24-.02,1.88-.04q1.58.35,2.62,1.46c1.13,2.8,1.54,5.63,2,8.61.11.66.22,1.33.33,2.01.23,1.42.46,2.85.69,4.27.47,2.96.95,5.92,1.43,8.87.24,1.48.48,2.96.72,4.43.93,5.75,1.9,11.5,2.91,17.24.15.87.31,1.74.46,2.62.21,1.18.41,2.37.62,3.55.11.65.23,1.3.35,1.97q.17,1.4.92,2.04c.12-.54.24-1.08.36-1.63,1.34-6.08,2.72-12.15,4.11-18.22q3.93-16.9,7.19-33.93.41-1.74,1.61-2.95,1.3-.14,2.89-.12.85,0,1.72.01c.59.01,1.19.02,1.8.03.6,0,1.2.01,1.82.02,1.48.01,2.96.03,4.45.06,1.5,3.19,2.32,6.19,2.94,9.65.1.52.19,1.03.29,1.56.2,1.1.41,2.2.61,3.3.31,1.72.63,3.44.96,5.17.42,2.27.85,4.54,1.27,6.82,1.96,10.54,4.17,21.01,6.61,31.44,1.96-7.51,3.05-15.17,4.26-22.82.32-2.01.64-4.01.96-6.02.2-1.24.4-2.48.59-3.72.53-3.28,1.2-6.47,2.03-9.68.21-1.35.4-2.71.57-4.07.54-3.92,1.14-7.87,2.45-11.62,2.34-1.17,5.23-.74,7.81-.75Z"/>
      <g>
        <path class="m" d="m145.6,1.77c.75,0,1.5.01,2.28.02q.6,0,1.21,0c1.28,0,2.56.02,3.84.04.87,0,1.73.01,2.6.02,2.13.01,4.25.03,6.38.06,2.41,4.52,4.27,9.14,6,13.96.28.77.56,1.54.84,2.31,3.85,10.64,7.56,21.33,11.27,32.02,1.25-2.28,2.05-4.71,2.89-7.15.33-.96.67-1.92,1-2.88.52-1.49,1.04-2.99,1.55-4.48,2.32-6.71,4.78-13.35,7.38-19.95.59-1.5,1.16-3.01,1.72-4.51q.25-.67.51-1.35c.33-.88.66-1.76.99-2.65q1.56-4.09,3.27-5.3,1.85-.22,4.1-.22c.4,0,.79,0,1.2,0,.84,0,1.67,0,2.51.02,1.28.01,2.56.01,3.85,0q6.29.03,7.66,1.4.15,1.5.15,3.44c0,.73,0,1.46.01,2.22,0,.81,0,1.63,0,2.44,0,.85,0,1.71,0,2.56,0,2.32,0,4.65,0,6.97,0,2.43,0,4.86,0,7.29,0,4.08,0,8.16,0,12.24,0,4.72,0,9.44,0,14.16,0,4.05,0,8.1,0,12.14,0,2.42,0,4.84,0,7.26,0,2.27,0,4.55,0,6.82,0,.84,0,1.67,0,2.51,0,1.14,0,2.28,0,3.42,0,.64,0,1.28,0,1.93q-.15,1.5-1.36,2.71-1.39.16-3.11.16-.93,0-1.87,0c-.65,0-1.29,0-1.96-.01-.65,0-1.29,0-1.96.01-.62,0-1.23,0-1.87,0-.57,0-1.14,0-1.72,0q-1.39-.16-2.6-1.36c-.13-1.73-.19-3.4-.19-5.12,0-.53-.01-1.06-.02-1.61-.02-1.76-.03-3.51-.04-5.27-.01-1.22-.02-2.43-.04-3.65-.03-3.2-.05-6.41-.08-9.61-.02-3.27-.05-6.54-.09-9.81-.06-6.42-.11-12.83-.16-19.25-1.32,3.37-2.63,6.74-3.95,10.11-.45,1.14-.89,2.29-1.34,3.43-3.13,8.01-6.25,16.03-9.32,24.07q-.48,1.02-1.69,2.23c-1.62.14-3.17.2-4.79.19-.44,0-.88.02-1.33.03q-3.25,0-4.51-.98c-.92-1.17-1.38-2.17-1.88-3.57-2.93-8.13-6-16.21-9.11-24.27-.42-1.09-.84-2.19-1.27-3.28-1.02-2.65-2.04-5.3-3.06-7.95,0,.68,0,1.36-.01,2.05-.05,6.38-.1,12.75-.16,19.13-.03,3.28-.06,6.56-.08,9.84-.02,3.16-.05,6.32-.08,9.49-.01,1.21-.02,2.42-.03,3.63-.01,1.69-.03,3.38-.05,5.06,0,.5,0,1.01,0,1.53q-.05,3.46-1.4,4.8c-2.19.27-4.4.2-6.6.19l-1.86.03q-.88,0-1.78,0c-.54,0-1.08,0-1.63,0-1.74-.28-2.16-.63-3.22-2.04q-.23-1.57-.23-3.49c0-.73,0-1.45-.01-2.2,0-.81,0-1.61.01-2.42,0-.85,0-1.7,0-2.55,0-2.31,0-4.61,0-6.92,0-2.41,0-4.82,0-7.23,0-4.05,0-8.09.02-12.14.01-4.68.01-9.37.01-14.05,0-4.5,0-9,0-13.5,0-1.92,0-3.84,0-5.75,0-2.26,0-4.51.01-6.77,0-.83,0-1.66,0-2.49,0-1.13,0-2.26.01-3.39,0-.63,0-1.27,0-1.92.24-2.3.9-2.66,3.16-2.84Z"/>
        <path class="l" d="m89.9,1.54c.92-.01,1.85,0,2.77.01.49,0,.98,0,1.48,0,1.03,0,2.07.01,3.1.03,1.58.03,3.16.02,4.74.02,1,0,2.01.01,3.01.02q.71,0,1.43,0,3.28.07,4.55,1.01c1.03,1.35,1.37,2.51,1.8,4.16.17.62.33,1.25.5,1.89.17.67.34,1.35.52,2.04.18.7.37,1.4.56,2.13,1.87,7.21,3.61,14.46,5.33,21.72,2.14,8.98,4.3,17.96,6.57,26.91.2.78.4,1.56.59,2.34.95,3.75,1.9,7.49,2.86,11.24.34,1.36.69,2.72,1.03,4.07.16.61.32,1.23.48,1.86.78,3.08,1.4,5.85,1.09,9.02-2.16,2.16-5.49,1.43-8.41,1.43-.67.01-1.34.03-2.03.04-.64,0-1.28,0-1.95,0-.59,0-1.18,0-1.79.02q-1.52-.29-2.58-1.32c-.82-1.54-1.16-2.81-1.45-4.53-.09-.53-.19-1.07-.28-1.62-.11-.67-.22-1.34-.33-2.03-.36-2.14-.72-4.28-1.09-6.49h-26.56c-.4,2.59-.8,5.18-1.21,7.85q-1.05,6.32-3.02,7.85-1.52.22-3.3.22c-.64,0-1.28,0-1.95,0-.67,0-1.34-.02-2.03-.03q-1.01,0-2.04,0-5.01-.03-6.37-1.4.06-1.19.38-2.72c.12-.59.24-1.19.37-1.8.15-.7.3-1.4.46-2.12.09-.41.17-.81.26-1.23.97-4.6,2-9.17,3.25-13.71,1.31-4.81,2.43-9.67,3.55-14.52,1.51-6.54,3.07-13.07,4.67-19.6,1.19-4.86,2.35-9.72,3.47-14.59.22-.95.44-1.89.65-2.84.42-1.81.82-3.61,1.23-5.42.19-.82.38-1.64.57-2.47.16-.72.32-1.43.49-2.17q1.43-4.77,4.61-5.3Z"/>
        <path class="e" d="m30.34.1q1.1.07,2.21.15c7.35.73,13.93,3.26,18.91,8.9,4.84,6.74,6.47,13.48,6.04,21.73q-.6.6-2.06.67c-.63,0-1.26,0-1.91,0-.68,0-1.36,0-2.06,0-.71,0-1.43-.01-2.17-.02-.72,0-1.43,0-2.17,0-1.78,0-3.56-.02-5.33-.03-.1-.61-.21-1.22-.31-1.85-.15-.82-.3-1.63-.44-2.45-.07-.4-.13-.8-.2-1.22-.63-3.38-1.88-5.93-4.51-8.25-3.4-2.09-7.59-1.62-11.43-1.32-2.77.74-4.37,1.9-6.26,4.04-2.47,5.04-2.37,10.24-2.37,15.74,0,.79,0,1.58,0,2.4,0,1.67,0,3.34,0,5,0,2.11,0,4.23-.02,6.34-.01,2.04,0,4.09,0,6.13,0,.75-.01,1.5-.02,2.27.03,5.45.14,11.59,3.44,16.13,3.92,2.65,7.87,2.69,12.49,2.3,2.47-.51,4.32-1.36,6.22-3.06,2.92-5.08,3.19-10.5,3.43-16.26-.77.01-1.54.03-2.33.04-1.01.01-2.01.02-3.02.03q-.76.02-1.54.03c-.49,0-.97,0-1.47.01-.45,0-.9.01-1.36.02q-1.13-.14-2.34-1.34-.16-1.28-.16-2.85c0-.56,0-1.12,0-1.7,0-.59,0-1.18.01-1.78q0-.88-.01-1.78c0-.56,0-1.12,0-1.7,0-.52,0-1.03,0-1.57q.16-1.28,1.36-2.49,1.1-.15,2.45-.15c.51,0,1.01,0,1.53,0,.55,0,1.09,0,1.66.01.56,0,1.12,0,1.7,0,1.18,0,2.37,0,3.55.01,1.82.01,3.64.01,5.46.01,1.15,0,2.3,0,3.44.01q.82,0,1.66,0,3.83.03,4.51.7c.07.85.1,1.7.11,2.55q.01.81.02,1.64c0,.59,0,1.19.01,1.8,0,.61,0,1.22.01,1.85,0,1.3.01,2.6.02,3.9.01,1.96.04,3.93.06,5.89.07,9.64-.45,17.34-7.33,24.7-2.29,2.21-4.41,3.66-7.39,4.75-.47.18-.94.36-1.43.54-8.31,2.61-19.61,2.71-27.54-1.15-1.8-1.04-3.32-2.19-4.83-3.62q-.48-.44-.97-.9C.39,77.36-.03,67.13,0,57.3c0-.94,0-1.87,0-2.81,0-1.95,0-3.9,0-5.85,0-2.48,0-4.96,0-7.44,0-1.93,0-3.86,0-5.78,0-.91,0-1.83,0-2.74C-.02,23.35.76,14.25,7.48,7.09,14.14,1.45,21.78-.48,30.34.1Z"/>
        <path class="g" d="m240.91,1.75c.43,0,.86,0,1.3,0,1.42,0,2.84,0,4.25,0,.98,0,1.97,0,2.95,0,2.06,0,4.12,0,6.19,0,2.65,0,5.29,0,7.94,0,2.03,0,4.06,0,6.09,0,.98,0,1.95,0,2.93,0,1.36,0,2.73,0,4.09,0q1.16,0,2.35,0,1.81.15,3.02,1.36.16,1.28.16,2.85,0,.84,0,1.7c0,.59,0,1.18-.01,1.78q0,.88.01,1.78c0,.56,0,1.12,0,1.7,0,.52,0,1.03,0,1.57q-.16,1.28-1.36,2.49-1.22.15-2.74.14c-.57,0-1.14,0-1.72,0-.61,0-1.23-.01-1.86-.02-.63,0-1.26,0-1.9,0-2.01,0-4.02-.02-6.03-.04-1.36,0-2.72-.01-4.08-.02-3.34-.01-6.68-.04-10.02-.06v21.12c1.63-.01,3.27-.03,4.95-.04,1.58,0,3.16-.02,4.75-.02,1.1,0,2.2-.01,3.3-.02,1.58-.01,3.16-.02,4.74-.03.49,0,.98-.01,1.49-.02,2.36,0,3.51,0,5.51,1.34q.22,1.39.22,3.11,0,.93,0,1.87c0,.65-.02,1.29-.03,1.96,0,.65,0,1.29,0,1.96q-.03,4.82-1.4,6.19c-1.77.11-3.49.14-5.27.12-.52,0-1.04,0-1.58,0-1.67,0-3.33-.02-5-.04-1.13,0-2.26-.01-3.39-.02-2.77-.01-5.54-.04-8.31-.06v21.73c2.03-.01,4.07-.03,6.16-.04,1.96,0,3.93-.02,5.89-.02,1.37,0,2.74-.01,4.1-.02,1.96-.01,3.92-.02,5.89-.03q.92,0,1.86-.02c.57,0,1.14,0,1.72,0q.75,0,1.52,0,1.22.15,2.43,1.35.16,1.28.16,2.85,0,.84,0,1.7c0,.59,0,1.18-.01,1.78q0,.88.01,1.78c0,.56,0,1.12,0,1.7,0,.52,0,1.03,0,1.57q-.16,1.28-1.36,2.49-1.81.15-4.16.16c-.43,0-.86,0-1.3,0-1.42,0-2.84,0-4.25,0-.98,0-1.97,0-2.95,0-2.06,0-4.12,0-6.19,0-2.65,0-5.29,0-7.94,0-2.03,0-4.06,0-6.09,0-.98,0-1.95,0-2.93,0-1.36,0-2.73,0-4.09,0-.78,0-1.55,0-2.35,0q-1.81-.15-3.02-1.36-.15-1.5-.15-3.44c0-.73,0-1.46-.01-2.22,0-.81,0-1.63,0-2.44,0-.85,0-1.71,0-2.56,0-2.32,0-4.65,0-6.97,0-2.43,0-4.86,0-7.29,0-4.08,0-8.16,0-12.24,0-4.72,0-9.44,0-14.16,0-4.05,0-8.1,0-12.14,0-2.42,0-4.84,0-7.26,0-2.27,0-4.55,0-6.82,0-.84,0-1.67,0-2.51,0-1.14,0-2.28,0-3.42,0-.64,0-1.28,0-1.93.34-3.37,2.71-2.86,5.52-2.87Z"/>
      </g>
      <g>
        <path class="o" d="m316.62,49.3c.19,0,.37,0,.56,0,.51,0,1.01,0,1.52,0,.55,0,1.09,0,1.64,0,1.07,0,2.14,0,3.21,0,.87,0,1.74,0,2.61,0,.12,0,.25,0,.38,0,.25,0,.5,0,.76,0,2.36,0,4.72,0,7.08,0,2.02,0,4.05,0,6.07,0,2.35,0,4.71,0,7.06,0,.25,0,.5,0,.75,0q.19,0,.37,0c.87,0,1.74,0,2.61,0,1.06,0,2.12,0,3.18,0,.54,0,1.08,0,1.62,0,.5,0,.99,0,1.49,0,.26,0,.52,0,.79,0,1.23.02,2.27.29,3.2,1.14.93.98,1.05,1.9,1.05,3.2,0,.15,0,.29,0,.45,0,.31,0,.62,0,.93,0,.47,0,.94,0,1.42,0,.3,0,.61,0,.91,0,.14,0,.28,0,.42-.01,1.52-.37,2.59-1.41,3.69-1.28,1.2-3.02,1.46-4.69,1.72-.14.02-.29.05-.44.07-1.4.2-2.78.23-4.19.23-.39,0-.78,0-1.17,0-.25,0-.5,0-.75,0-.11,0-.23,0-.35,0-1.18,0-2.16-.38-3.01-1.21-.35-.44-.62-.93-.9-1.42q-.08-.15-.17-.3c-.13-.22-.26-.45-.38-.67-.33-.58-.66-1.15-.99-1.73-.05-.09-.11-.18-.16-.28-.77-1.34-1.76-2.62-3.31-3.07-.54-.06-1.08-.06-1.62-.06-.16,0-.31,0-.47,0-.33,0-.66,0-.99,0-.5,0-1,0-1.5-.01-.32,0-.64,0-.96,0-.15,0-.3,0-.45,0-.95,0-1.59.17-2.37.73-.08.06-.17.12-.25.18-1.15.85-1.77,2.38-2.44,3.61q-1.94,3.51-3.75,4.19c-.41.07-.81.07-1.23.06-.12,0-.23,0-.35,0-.37,0-.75,0-1.12-.01-.26,0-.51,0-.77,0q-6.84-.07-9.31-1.88c-.79-.83-1.25-1.7-1.26-2.85,0-.14,0-.28,0-.42,0-.15,0-.3,0-.45,0-.15,0-.31,0-.47,0-.33,0-.65,0-.98,0-.5,0-.99,0-1.49,0-.32,0-.63,0-.95,0-.15,0-.3,0-.45,0-1.14.16-2,.95-2.88.09-.1.18-.21.27-.31,1.12-.92,2.25-1.05,3.66-1.03Z"/>
        <path class="k" d="m315.9,44.31c.19,0,.38,0,.57,0,.52,0,1.04,0,1.56,0,.56,0,1.12,0,1.68,0,1.1,0,2.2,0,3.3,0,.89,0,1.79,0,2.68,0,.26,0,.52,0,.77,0,.13,0,.26,0,.39,0,2.43,0,4.85,0,7.28,0,2.22,0,4.43,0,6.65,0,2.28,0,4.56,0,6.84,0,1.28,0,2.56,0,3.83,0,1.09,0,2.18,0,3.26,0,.55,0,1.11,0,1.66,0,3.36-.02,6.1.17,8.68,2.6.48.53.84,1.11,1.19,1.73.05.09.11.19.16.28.48.89.65,1.78.65,2.79,0,.1,0,.19,0,.29,0,.31,0,.62,0,.94,0,.22,0,.44,0,.66,0,.46,0,.92,0,1.38,0,.58,0,1.17.01,1.75,0,.45,0,.91,0,1.36,0,.22,0,.43,0,.65.03,2.23-.6,4.04-2.15,5.7-2.27,2.15-5.34,2.91-8.35,3.26-.12.01-.23.03-.35.04-1.82.2-3.64.25-5.47.27-.24,0-.48,0-.72.01-2.45.04-4.66-.41-6.53-2.13-1.3-1.26-2.13-2.8-2.93-4.41-.41-.8-.87-1.68-1.75-2.02-.57-.06-1.14-.05-1.71-.05q-.23,0-.47,0c-.88,0-1.5,0-2.19.57-.23.3-.4.56-.58.88-.05.08-.1.17-.15.26-.32.56-.6,1.13-.87,1.71-1.08,2.2-2.77,3.91-5.09,4.75-.09.04-.18.07-.28.11-1.26.42-2.58.33-3.89.32-.13,0-.26,0-.39,0q-10.22-.06-13.82-3.41c-1.68-1.77-2.17-3.68-2.15-6.05,0-.21,0-.42,0-.63,0-.44,0-.88,0-1.32,0-.56,0-1.12,0-1.68,0-.43,0-.87,0-1.3,0-.21,0-.41,0-.62,0-2.63.54-4.44,2.35-6.41.58-.56,1.21-.95,1.92-1.31.08-.04.16-.08.25-.13,1.35-.65,2.64-.79,4.12-.78Zm-5.66,4.36c-1.12,1.54-1.31,3.05-1.31,4.89,0,.18,0,.36,0,.54,0,.37,0,.75,0,1.12,0,.48,0,.95,0,1.43,0,.37,0,.74,0,1.11,0,.26,0,.52,0,.78,0,1.81.55,3.3,1.75,4.67,2.84,2.78,7.43,2.83,11.14,2.9.29,0,.58.01.87.02,2.71.08,4.92-.03,6.99-1.98,1.03-1.09,1.67-2.42,2.34-3.75.56-1.11,1.23-2.31,2.46-2.78.38-.04.76-.04,1.14-.04.11,0,.22,0,.34,0,.23,0,.47,0,.7,0,.36,0,.71,0,1.07-.01.23,0,.46,0,.69,0,.11,0,.21,0,.32,0,.74,0,1.31.16,1.92.58.94.96,1.55,2.33,2.21,3.48,1.14,1.99,2.31,3.67,4.61,4.37,4.32.85,11.32.43,15.03-1.98,1.45-1.05,2.39-2.33,2.86-4.07.07-.61.07-1.22.06-1.83,0-.17,0-.35,0-.52,0-.36,0-.72,0-1.08,0-.46,0-.92,0-1.38,0-.36,0-.72,0-1.07,0-.25,0-.5,0-.75-.02-2.11-.69-3.88-2.16-5.41-1.48-1.35-3.17-1.53-5.1-1.52-.19,0-.38,0-.57,0-.52,0-1.04,0-1.57,0-.56,0-1.13,0-1.69,0-1.1,0-2.21,0-3.31,0-.9,0-1.8,0-2.69,0-.26,0-.52,0-.78,0-.13,0-.26,0-.39,0-2.44,0-4.87,0-7.31,0-2.23,0-4.45,0-6.68,0-2.29,0-4.58,0-6.86,0-1.28,0-2.57,0-3.85,0-1.09,0-2.19,0-3.28,0-.56,0-1.11,0-1.67,0-.51,0-1.02,0-1.53,0-.18,0-.37,0-.55,0-2.07-.02-3.82.74-5.16,2.33Z"/>
        <path class="p" d="m311.8,17.08c.12.06.24.11.36.17.94.49,1.78,1.09,2.6,1.76.13.11.26.21.4.32,1.02.83,1.95,1.75,2.88,2.67.06.06.12.12.18.18.72.72,1.41,1.45,2.08,2.23.14.15.27.31.41.46.79.9,1.55,1.82,2.28,2.78.18.24.37.48.57.71q.22.29.22.55c.16-.05.31-.1.47-.15,3.4-1.07,6.9-1.56,10.47-1.65.13,0,.25,0,.38-.01,5.07-.15,10.25.46,15.06,2.07q.06-.12.11-.24c.58-1.13,1.54-2.13,2.37-3.09.33-.38.64-.77.96-1.16.39-.48.79-.92,1.23-1.35.23-.23.44-.47.65-.71.81-.94,1.7-1.8,2.65-2.59.07-.06.14-.11.21-.17,1.78-1.48,3.9-3.21,6.27-3.48,1.16.12,2.22.68,2.97,1.57,2.89,3.93,3.01,9.23,2.92,13.92,0,.26,0,.51-.01.77-.03,3.08-.42,6.23-1.19,9.21-.18.91-.16,1.44.28,2.23.26.52.4,1.08.56,1.64.03.12.07.23.1.35.19.65.29,1.21.25,1.89-.28,0-.55,0-.83,0-.15,0-.31,0-.47,0q-.38-.01-.51-.14c-.04-.2-.07-.4-.1-.6-.23-1.3-.65-2.51-1.44-3.57-.34-.85.08-1.93.29-2.78.25-1.08.46-2.16.64-3.25.02-.13.04-.26.06-.4.22-1.4.31-2.76.32-4.18q0-.13,0-.25c0-.45,0-.89,0-1.34,0-.36,0-.72,0-1.08q.07-6.2-2.67-11.57c-.44-.4-.73-.45-1.31-.45-2.27.38-4.39,2.43-5.98,3.99-.1.1-.21.2-.32.31-.36.35-.71.7-1.07,1.05q-.17.17-.34.34c-.67.67-1.29,1.37-1.88,2.11-.2.25-.4.49-.61.73-.8.92-1.53,1.87-2.23,2.86q-.84,1.17-1.27,1.48c-.35,0-.57-.03-.9-.13-.11-.03-.21-.06-.32-.09-.25-.07-.5-.14-.75-.21-2.32-.65-4.67-1.01-7.05-1.35-.21-.03-.42-.06-.64-.09-5.56-.82-11.48-.07-16.83,1.49-.49.14-.81.2-1.31.11-.67-.55-1.13-1.34-1.63-2.04-1.31-1.77-2.74-3.54-4.32-5.07-.23-.23-.43-.46-.64-.71-1.64-1.89-4.01-3.98-6.41-4.79-.71,0-1.18.11-1.7.6-1.21,1.56-1.7,3.54-2.06,5.45-.02.11-.04.23-.07.35-.33,1.88-.32,3.77-.32,5.67,0,.14,0,.27,0,.41,0,3.8.33,7.53,1.23,11.24.16.73.19,1.26-.22,1.91q-.09.13-.18.26c-.61.9-.9,2.08-1.01,3.15q-.06.44-.31.7-.36.03-.79.02c-.14,0-.28,0-.43,0-.11,0-.22,0-.33,0-.17-.56-.06-1.03.07-1.58.02-.1.05-.2.07-.31q.58-2.43,1.15-3c.04-.67-.06-1.25-.23-1.89-.8-3.23-.97-6.54-.96-9.85,0-.51,0-1.02,0-1.53,0-2.25.09-4.43.58-6.63.03-.12.06-.25.08-.38.53-2.26,1.39-4.7,3.41-6.05,1.38-.78,2.45-.47,3.81.21Z"/>
        <path class="v" d="m308.97,68.94c.35.4.61.86.89,1.32,2.07,3.31,5.38,5.75,8.77,7.56.08.05.17.09.25.14,3.82,2.07,8.09,3.3,12.36,3.98.12.02.25.04.38.06,3.96.65,8.28.58,12.24-.06.11-.02.22-.03.33-.05,6.51-1.06,12.65-3.75,17.43-8.31.1-.09.2-.19.3-.28,1.18-1.13,2.16-2.44,3.01-3.83q.16-.26.29-.39c.65-.06,1.22-.05,1.8.26-.6,1.99-2.27,3.73-3.68,5.22-.17.18-.34.36-.51.54-.96,1-2.01,1.81-3.14,2.6-.08.06-.17.12-.25.18-2.38,1.65-5,2.96-7.73,3.94-.12.04-.24.09-.36.13-2.47.88-4.97,1.52-7.56,1.97-.12.02-.23.04-.35.06-1.94.31-3.92.31-5.87.32-.11,0-.23,0-.35,0-2.8,0-5.51-.29-8.24-.87-.29-.06-.58-.12-.87-.18-7.95-1.59-15.42-5.71-20.15-12.37q-.77-1.17-.77-1.67,1.22-.49,1.8-.26Z"/>
        <path class="q" d="m359.29,55.95l.26.13-.26-.13Z"/>
        <path class="w" d="m336.55,14.33c.38,0,.77,0,1.15,0,1.78,0,3.49.16,5.24.43.16.02.32.05.49.08,4.43.72,8.55,2.24,12.38,4.56-.06.5-.1.74-.42,1.14-.41.31-.5.34-1,.27q-.35-.18-.75-.43c-1.98-1.2-4.25-1.99-6.46-2.65q-.13-.04-.27-.08c-1.43-.44-2.88-.69-4.35-.91-.09-.01-.18-.03-.27-.04-1.85-.28-3.67-.42-5.53-.38q-.17,0-.35,0c-5.59.13-11.12,1.29-16,4.12q-.68.38-1.13.37c-.44-.19-.65-.5-.92-.89v-.51c.31-.23.59-.41.93-.6.1-.06.2-.11.3-.17.32-.18.64-.35.96-.52.1-.05.2-.11.31-.16,2.78-1.46,5.82-2.42,8.91-2.99.2-.04.39-.08.59-.12,2.03-.46,4.13-.5,6.2-.49Z"/>
        <path class="f" d="m301.76,37.03c.36.04.49.11.74.37.55,1.37-.11,2.68-.63,3.95-.12.29-.23.58-.35.88-.08.19-.15.38-.23.57-.41,1.02-.76,2.06-1.08,3.11.12.02.24.03.37.05.42.08.61.19.92.46-.03.44-.12.64-.41.98-.42.33-.86.4-1.38.49-.8.15-1.31.31-1.81.97-1.13,1.77-1.18,3.78-1.18,5.82,0,.16,0,.32,0,.48,0,.33,0,.67,0,1,0,.51,0,1.01,0,1.52q-.09,3.71,1.44,7c.74.65,1.51.87,2.45,1.16v1.67c-1.74-.09-2.99-.61-4.2-1.87-1.59-1.92-1.74-4.57-1.75-6.95,0-.14,0-.28,0-.42,0-.3,0-.59,0-.89,0-.44,0-.88,0-1.33-.01-3.14.05-6.68,2.37-9.07.27-.26.49-.44.82-.61.39-.27.44-.42.55-.88.03-.13.07-.26.1-.4.03-.14.07-.28.1-.43.08-.29.16-.59.23-.88q.06-.22.12-.44c.59-2.11,1.45-4.61,2.82-6.33Z"/>
        <path class="n" d="m372.16,37.03h.39c1.48,2.41,2.59,5.15,3.23,7.91q.22,1,.94,1.67.15.08.31.17c1.17.65,1.8,2.3,2.19,3.52.36,1.39.45-1.23.45.2,0,.18,0,.35,0,.53,0,.37,0,.74,0,1.11,0,.37,0,.75,0,1.12.04,6.36.04,10.36-2.1,12.74-.99.92-2.36,1.67-3.73,1.67v-1.8c.26-.09.51-.18.78-.27,1.07-.42,1.76-.9,2.29-1.93.61-1.55.81-3.23.81-4.89q0-.21,0-.42c0-.29,0-.58,0-.88,0-.44,0-.87,0-1.31q.04-3.57-1.07-6.91c-.04-.08-.09-.16-.13-.25-.27-.45-.56-.67-1.03-.91q-.4-.08-.83-.12c-.85-.12-1.27-.29-1.87-.91q-.14-.26-.14-.52c.19-.36.41-.47.77-.64h.51c-.2-.63-.41-1.25-.62-1.88-.07-.21-.14-.42-.21-.64-.39-1.2-.8-2.37-1.34-3.52-.28-.75-.33-1.59-.04-2.35q.13-.21.41-.5Z"/>
        <path class="i" d="m364.18,24.93c.06.24.12.48.19.72.03.13.07.27.1.41.29,1.38.25,2.84.25,4.25,0,.09,0,.17,0,.26,0,1.4-.05,2.8-.13,4.2,0,.17-.02.34-.03.51q-.18,2.88-.64,3.8c-.59-.18-.94-.51-1.35-.95-.34-.36-.67-.7-1.07-.99-.32-.28-.35-.35-.41-.76,0-.25,0-.49,0-.74q0-.22,0-.44c0-.3,0-.6.02-.9,0-.85-.05-1.6-.27-2.42-.55,0-.73.25-1.13.61-.43.43-.8.89-1.17,1.37q-.57.69-.92.98c-.48,0-.84-.21-1.25-.43-.1-.05-.2-.11-.3-.16q-.24-.17-.37-.56c.29-.55.67-1.04,1.03-1.54.06-.08.12-.16.18-.24,1.25-1.72,2.59-3.32,4.09-4.83q.14-.14.28-.29,1.84-1.84,2.92-1.84Z"/>
        <path class="i" d="m310.13,24.8c1.1.1,2.03,1.09,2.76,1.86q.22.23.57.49c.49.39.85.89,1.24,1.38.27.33.54.65.82.97.87,1,1.65,2.07,2.41,3.16.11.16.23.32.34.47.21.28.35.48.35.83-.19.33-.41.43-.75.59-.11.06-.22.11-.34.17-.42.13-.58.15-.98-.02-.28-.26-.51-.55-.74-.84-.7-.85-1.42-1.63-2.35-2.24-.24.6-.28,1.12-.26,1.76,0,.19,0,.38,0,.57,0,.3,0,.59.02.89q.06,1.73-.45,2.37c-.34.36-.72.67-1.11.98-.17.16-.34.32-.51.47q-.39.3-.77.3c-.94-2.59-.67-5.69-.67-8.4,0-.46,0-.91,0-1.37,0-.36,0-.71,0-1.07,0-.25,0-.5,0-.75q0-2.17.42-2.58Z"/>
        <path class="d" d="m369.87,69.83c.12,0,.23,0,.35,0,.12,0,.23,0,.35,0q.3.02.56.15c.04.92-.06,1.71-.32,2.59q-.05.18-.1.35c-1.29,4.18-4.41,7.19-8.07,9.41-.1.05-.21.11-.31.16-.7.37-.96.84-1.29,1.56-.37.63-.89.91-1.57,1.12q-.21.07-.42.13t-.43.13c-.14.05-.28.09-.43.14q-1.99.63-2.73.34c-.51-.45-.87-.98-.96-1.66,0-.09,0-.19,0-.28q0-.14-.01-.28c.09-.59.3-1.15.78-1.54.24-.14.49-.26.75-.37.09-.04.18-.08.28-.13.27-.13.55-.24.83-.36.16-.07.31-.14.47-.21.77-.32,1.4-.55,2.23-.44l.77.39c1.26-.09,2.4-1.1,3.37-1.84.07-.05.14-.11.22-.16.33-.26.55-.47.79-.83-.3-.21-.59-.42-.9-.64.2-.55.47-1.04.77-1.54.38.06.64.2.97.41q.41.27.7.17c.37-.27.59-.62.83-1.01q.08-.12.15-.24c.98-1.59,1.62-3.3,1.94-5.14.07-.34.11-.36.46-.38Z"/>
        <path class="t" d="m336.83,65.05c.29,0,.58,0,.86-.01.18,0,.37,0,.55,0q.25,0,.51,0c.54.07.81.23,1.23.58.32.47.35.77.33,1.33-.15.67-.66,1.07-1.15,1.51-.1.1-.2.19-.31.3q-.73.69-1.06.85.46,1.72,1.67,2.96c.92.37,1.89.42,2.81.04.79-.4,1.23-.98,1.7-1.71q.13-.13.57-.15t.72.28c.12.81-.06,1.32-.51,2-.96,1.17-2.14,1.62-3.61,1.77-1.41.06-2.57-.34-3.62-1.28q-.24-.22-.62-.18c-.25.17-.47.36-.7.55-.94.64-1.77.82-2.9.8q-.18,0-.36,0c-1.27,0-2.32-.49-3.24-1.36-.45-.52-.81-1.01-.84-1.72q.07-.47.22-.72c.37-.2.6-.2,1.01-.13.32.32.52.65.74,1.04.43.57.96.78,1.63.99.11.01.22.02.33.03.08,0,.17.02.25.02.81.04,1.51-.11,2.19-.54.73-.74,1.01-1.73,1.29-2.7-.35-.35-.7-.7-1.07-1.03-.15-.14-.3-.28-.44-.42q-.11-.1-.23-.2c-.5-.48-.69-.86-.73-1.56.03-.36.13-.53.38-.77q.1-.11.21-.22c.59-.5,1.46-.33,2.19-.34Z"/>
        <path class="j" d="m316.43,53.37c1.99.56,3.96,1.15,5.93,1.78.57.18,1.14.35,1.71.52.93.27,1.85.56,2.77.87.11.04.22.07.34.11.1.04.21.07.31.11.09.03.18.06.28.1.27.13.43.28.63.5-.25.35-.51.69-.77,1.03-.06.08-.11.16-.17.24-.92,1.18-2.35,1.88-3.82,2.08-2.07.13-3.78-.31-5.42-1.64-1.11-1.05-1.87-2.55-1.93-4.09,0-.16,0-.31,0-.48,0-.16,0-.32,0-.48q.02-.4.15-.65Z"/>
        <path class="s" d="m356.85,53.89c.06,1.96-.27,3.53-1.58,5.07-1.23,1.29-2.79,1.86-4.54,1.91-1.74-.02-3.12-.57-4.43-1.71-.21-.26-.42-.52-.62-.79-.1-.14-.2-.27-.31-.41q-.23-.34-.23-.6c1.42-.51,2.84-.99,4.27-1.46.3-.1.6-.2.9-.29,1.07-.35,2.14-.68,3.22-.99.77-.22,1.52-.49,2.27-.76.42-.11.64-.1,1.05.02Z"/>
        <path class="h" d="m303.76,50.19c.1,0,.2.02.3.03.34.09.45.18.66.46q.05.3.05.67c0,.14,0,.28,0,.42,0,.15,0,.3,0,.46,0,.16,0,.32,0,.48,0,.44,0,.87,0,1.31,0,.46,0,.91,0,1.37,0,.77,0,1.53,0,2.3,0,.89,0,1.77,0,2.66,0,.76,0,1.52,0,2.28,0,.45,0,.91,0,1.36,0,.51,0,1.01,0,1.52q0,.23,0,.46c0,.14,0,.27,0,.42,0,.12,0,.24,0,.36-.02.09-.03.19-.05.29-.47.31-.73.3-1.29.31-.16,0-.32,0-.48.01q-.42-.06-.63-.28c-.2-.35-.22-.56-.22-.96,0-.13,0-.27,0-.41,0-.15,0-.29,0-.44,0-.15,0-.31,0-.47,0-.42,0-.85,0-1.27,0-.35,0-.71,0-1.06,0-.84,0-1.67,0-2.51,0-.86,0-1.72,0-2.59,0-.74,0-1.48,0-2.22,0-.44,0-.88,0-1.33,0-.49,0-.99,0-1.48,0-.15,0-.29,0-.44,0-.13,0-.27,0-.41,0-.12,0-.23,0-.35.08-.41.26-.56.58-.83.38-.15.7-.14,1.1-.1Z"/>
        <path class="u" d="m371.06,50.18c.1,0,.2.01.3.02.39.11.55.29.8.6q.06.31.06.66c0,.13,0,.27,0,.4q0,.22,0,.44c0,.15,0,.31,0,.47,0,.42,0,.84,0,1.26,0,.44,0,.88,0,1.32,0,.74,0,1.48,0,2.22,0,.86,0,1.71,0,2.57,0,.91,0,1.82,0,2.73,0,.26,0,.52,0,.79,0,.49,0,.98,0,1.47,0,.15,0,.29,0,.44q0,.2,0,.4c0,.12,0,.23,0,.35-.04.33-.11.54-.29.82-.36.18-.68.16-1.09.16-.15,0-.3,0-.45.01q-.39-.04-.61-.2c-.23-.31-.22-.51-.22-.89,0-.14,0-.27,0-.41,0-.15,0-.3,0-.45,0-.16,0-.32,0-.48,0-.43,0-.86,0-1.3,0-.36,0-.72,0-1.08,0-.85,0-1.7,0-2.55,0-.88,0-1.76,0-2.64,0-.75,0-1.51,0-2.26,0-.45,0-.9,0-1.35,0-.5,0-1,0-1.51,0-.15,0-.3,0-.45,0-.14,0-.27,0-.41,0-.12,0-.24,0-.36q.06-.3.3-.53c.43-.25.75-.31,1.23-.26Z"/>
        <path class="x" d="m334.66,67.79c-.44-.44-.63-.78-.65-1.4.11-.52.44-.85.83-1.18.58-.29,1.35-.16,1.99-.17.29,0,.58,0,.86-.01.18,0,.37,0,.55,0q.25,0,.51,0c.54.07.81.23,1.23.58.32.48.34.77.33,1.33-.14.67-.64,1.05-1.13,1.5-.1.1-.2.19-.3.29q-1.13,1.07-1.8,1.19c-.73-.13-1.17-.78-1.62-1.33"/>
      </g>
    </g>
  </g>
</svg>