<?xml version="1.0" encoding="UTF-8"?>
<svg xmlns="http://www.w3.org/2000/svg" xmlns:xlink="http://www.w3.org/1999/xlink" width="32px" height="32px" viewBox="0 0 32 32" version="1.1">
<g id="surface1">
<path style=" stroke:none;fill-rule:nonzero;fill:rgb(100%,100%,100%);fill-opacity:1;" d="M 1.558594 18.222656 C 1.621094 18.222656 1.683594 18.21875 1.746094 18.21875 C 2.058594 18.269531 2.25 18.417969 2.4375 18.664062 C 2.476562 18.726562 2.511719 18.785156 2.550781 18.847656 C 2.800781 19.238281 3.074219 19.585938 3.375 19.9375 C 3.421875 19.992188 3.464844 20.042969 3.511719 20.101562 C 3.847656 20.488281 4.214844 20.8125 4.625 21.125 C 4.691406 21.175781 4.753906 21.226562 4.820312 21.277344 C 6.378906 22.453125 8.234375 23.078125 10.175781 23.167969 C 10.488281 23.179688 10.488281 23.179688 10.625 23.25 C 10.625 23.191406 10.621094 23.136719 10.621094 23.078125 C 10.617188 22.867188 10.613281 22.65625 10.609375 22.441406 C 10.609375 22.351562 10.609375 22.261719 10.605469 22.167969 C 10.601562 22.035156 10.601562 21.90625 10.601562 21.773438 C 10.597656 21.695312 10.597656 21.613281 10.597656 21.53125 C 10.628906 21.273438 10.710938 21.140625 10.875 20.9375 C 11.09375 20.769531 11.285156 20.703125 11.5625 20.6875 C 11.96875 20.757812 12.191406 20.882812 12.492188 21.160156 C 12.53125 21.195312 12.566406 21.226562 12.605469 21.261719 C 12.71875 21.359375 12.828125 21.460938 12.9375 21.5625 C 13.050781 21.664062 13.160156 21.761719 13.273438 21.863281 C 13.324219 21.910156 13.371094 21.953125 13.425781 22 C 13.699219 22.25 13.984375 22.496094 14.265625 22.738281 C 14.339844 22.800781 14.417969 22.867188 14.492188 22.929688 C 14.550781 22.976562 14.550781 22.976562 14.609375 23.027344 C 14.828125 23.21875 15.046875 23.410156 15.261719 23.605469 C 15.46875 23.792969 15.679688 23.96875 15.894531 24.144531 C 17.460938 25.414062 17.460938 25.414062 17.523438 25.855469 C 17.535156 26.492188 17.535156 26.492188 17.300781 26.769531 C 17.105469 26.949219 16.902344 27.117188 16.695312 27.28125 C 16.484375 27.449219 16.289062 27.628906 16.09375 27.8125 C 15.796875 28.089844 15.492188 28.347656 15.175781 28.601562 C 14.976562 28.769531 14.785156 28.945312 14.59375 29.125 C 14.296875 29.402344 13.992188 29.660156 13.675781 29.914062 C 13.472656 30.085938 13.28125 30.261719 13.089844 30.441406 C 12.066406 31.398438 12.066406 31.398438 11.375 31.390625 C 11.125 31.367188 10.992188 31.296875 10.8125 31.125 C 10.621094 30.867188 10.601562 30.675781 10.605469 30.359375 C 10.605469 30.316406 10.605469 30.273438 10.609375 30.230469 C 10.609375 30.09375 10.609375 29.960938 10.613281 29.824219 C 10.613281 29.730469 10.613281 29.640625 10.617188 29.546875 C 10.617188 29.324219 10.621094 29.097656 10.625 28.875 C 10.566406 28.875 10.566406 28.875 10.511719 28.878906 C 7.851562 28.9375 5.445312 28 3.496094 26.179688 C 2.464844 25.191406 1.699219 23.953125 1.1875 22.625 C 1.160156 22.554688 1.132812 22.484375 1.105469 22.410156 C 0.765625 21.46875 0.605469 20.5 0.59375 19.5 C 0.59375 19.4375 0.589844 19.375 0.589844 19.308594 C 0.59375 18.949219 0.621094 18.714844 0.875 18.4375 C 1.101562 18.261719 1.273438 18.222656 1.558594 18.222656 Z M 1.558594 18.222656 "/>
<path style=" stroke:none;fill-rule:nonzero;fill:rgb(100%,100%,100%);fill-opacity:1;" d="M 21.117188 0.839844 C 21.351562 1.125 21.390625 1.261719 21.386719 1.628906 C 21.386719 1.671875 21.386719 1.714844 21.386719 1.757812 C 21.386719 1.894531 21.382812 2.03125 21.382812 2.167969 C 21.382812 2.261719 21.382812 2.351562 21.382812 2.445312 C 21.378906 2.671875 21.378906 2.898438 21.375 3.125 C 21.410156 3.125 21.449219 3.121094 21.484375 3.121094 C 24.242188 3.035156 26.585938 4.054688 28.59375 5.910156 C 29.585938 6.867188 30.320312 8.097656 30.8125 9.375 C 30.839844 9.445312 30.867188 9.515625 30.894531 9.589844 C 31.234375 10.53125 31.394531 11.5 31.40625 12.5 C 31.40625 12.5625 31.410156 12.625 31.410156 12.691406 C 31.40625 13.050781 31.378906 13.285156 31.125 13.5625 C 30.898438 13.738281 30.726562 13.777344 30.441406 13.777344 C 30.378906 13.777344 30.316406 13.78125 30.253906 13.78125 C 29.941406 13.730469 29.75 13.582031 29.5625 13.335938 C 29.523438 13.273438 29.488281 13.214844 29.449219 13.152344 C 29.199219 12.761719 28.925781 12.414062 28.625 12.0625 C 28.578125 12.007812 28.535156 11.957031 28.488281 11.898438 C 28.152344 11.511719 27.785156 11.1875 27.375 10.875 C 27.308594 10.824219 27.246094 10.773438 27.179688 10.722656 C 25.621094 9.546875 23.765625 8.921875 21.824219 8.832031 C 21.511719 8.820312 21.511719 8.820312 21.375 8.75 C 21.378906 8.835938 21.378906 8.835938 21.378906 8.921875 C 21.382812 9.132812 21.386719 9.34375 21.390625 9.558594 C 21.390625 9.648438 21.390625 9.738281 21.394531 9.832031 C 21.398438 9.964844 21.398438 10.09375 21.398438 10.226562 C 21.402344 10.347656 21.402344 10.347656 21.402344 10.46875 C 21.371094 10.726562 21.289062 10.859375 21.125 11.0625 C 20.839844 11.28125 20.597656 11.289062 20.25 11.277344 C 19.941406 11.230469 19.78125 11.085938 19.5625 10.875 C 19.453125 10.773438 19.339844 10.675781 19.230469 10.574219 C 19.144531 10.492188 19.144531 10.492188 19.054688 10.410156 C 18.886719 10.257812 18.714844 10.117188 18.539062 9.976562 C 18.238281 9.734375 17.957031 9.476562 17.675781 9.214844 C 17.46875 9.019531 17.253906 8.835938 17.03125 8.65625 C 16.769531 8.449219 16.523438 8.226562 16.28125 8 C 15.929688 7.671875 15.5625 7.363281 15.1875 7.0625 C 15.09375 6.984375 15 6.90625 14.90625 6.828125 C 14.847656 6.78125 14.847656 6.78125 14.789062 6.730469 C 14.554688 6.488281 14.472656 6.28125 14.472656 5.941406 C 14.484375 5.609375 14.515625 5.433594 14.75 5.1875 C 14.910156 5.050781 15.074219 4.917969 15.242188 4.785156 C 15.453125 4.617188 15.648438 4.433594 15.84375 4.25 C 16.140625 3.972656 16.445312 3.714844 16.761719 3.460938 C 16.960938 3.292969 17.152344 3.117188 17.34375 2.9375 C 17.640625 2.660156 17.945312 2.402344 18.261719 2.148438 C 18.460938 1.980469 18.652344 1.804688 18.84375 1.625 C 20.371094 0.207031 20.371094 0.207031 21.117188 0.839844 Z M 21.117188 0.839844 "/>
<path style=" stroke:none;fill-rule:nonzero;fill:rgb(100%,100%,100%);fill-opacity:1;" d="M 21.898438 23.730469 C 22.078125 23.820312 22.222656 23.925781 22.378906 24.046875 C 23.433594 24.828125 24.726562 25.160156 26.03125 25.035156 C 27.113281 24.867188 28.0625 24.46875 28.882812 23.742188 C 29 23.6875 29 23.6875 29.144531 23.722656 C 29.351562 23.835938 29.527344 23.972656 29.703125 24.125 C 29.738281 24.15625 29.773438 24.1875 29.8125 24.21875 C 30.984375 25.246094 31.796875 26.691406 32 28.25 C 32.011719 28.488281 32.011719 28.730469 32.015625 28.96875 C 32.015625 29.039062 32.015625 29.109375 32.015625 29.179688 C 32.015625 29.328125 32.019531 29.472656 32.019531 29.621094 C 32.019531 29.769531 32.019531 29.917969 32.023438 30.066406 C 32.023438 30.285156 32.027344 30.5 32.027344 30.71875 C 32.027344 30.785156 32.027344 30.851562 32.03125 30.917969 C 32.027344 31.289062 32.011719 31.527344 31.75 31.8125 C 31.488281 32.007812 31.261719 32.027344 30.945312 32.023438 C 30.898438 32.023438 30.847656 32.023438 30.796875 32.023438 C 30.632812 32.027344 30.46875 32.027344 30.304688 32.023438 C 30.1875 32.027344 30.070312 32.027344 29.953125 32.027344 C 29.632812 32.027344 29.316406 32.027344 28.996094 32.027344 C 28.726562 32.027344 28.460938 32.027344 28.195312 32.027344 C 27.566406 32.027344 26.9375 32.027344 26.308594 32.027344 C 25.660156 32.027344 25.007812 32.027344 24.359375 32.03125 C 23.804688 32.03125 23.246094 32.03125 22.6875 32.03125 C 22.355469 32.03125 22.023438 32.03125 21.691406 32.03125 C 21.378906 32.03125 21.0625 32.03125 20.75 32.03125 C 20.636719 32.03125 20.519531 32.03125 20.40625 32.03125 C 20.25 32.03125 20.09375 32.03125 19.9375 32.03125 C 19.890625 32.03125 19.84375 32.03125 19.796875 32.03125 C 19.484375 32.027344 19.304688 31.945312 19.0625 31.75 C 18.804688 31.460938 18.847656 31.113281 18.847656 30.746094 C 18.847656 30.679688 18.847656 30.613281 18.847656 30.542969 C 18.847656 30.398438 18.847656 30.253906 18.847656 30.109375 C 18.847656 29.894531 18.847656 29.675781 18.84375 29.460938 C 18.835938 27.558594 19.414062 25.878906 20.75 24.5 C 20.949219 24.300781 21.15625 24.117188 21.375 23.9375 C 21.429688 23.890625 21.429688 23.890625 21.484375 23.84375 C 21.636719 23.726562 21.707031 23.675781 21.898438 23.730469 Z M 21.898438 23.730469 "/>
<path style=" stroke:none;fill-rule:nonzero;fill:rgb(100%,100%,100%);fill-opacity:1;" d="M 3.023438 7.355469 C 3.203125 7.445312 3.347656 7.550781 3.503906 7.671875 C 4.558594 8.453125 5.851562 8.785156 7.15625 8.660156 C 8.238281 8.492188 9.1875 8.09375 10.007812 7.367188 C 10.125 7.3125 10.125 7.3125 10.269531 7.347656 C 10.476562 7.460938 10.652344 7.597656 10.828125 7.75 C 10.863281 7.78125 10.898438 7.8125 10.9375 7.84375 C 12.109375 8.871094 12.921875 10.316406 13.125 11.875 C 13.136719 12.113281 13.136719 12.355469 13.140625 12.59375 C 13.140625 12.664062 13.140625 12.734375 13.140625 12.804688 C 13.140625 12.953125 13.144531 13.097656 13.144531 13.246094 C 13.144531 13.394531 13.144531 13.542969 13.148438 13.691406 C 13.148438 13.910156 13.152344 14.125 13.152344 14.34375 C 13.152344 14.410156 13.152344 14.476562 13.15625 14.542969 C 13.152344 14.914062 13.136719 15.152344 12.875 15.4375 C 12.613281 15.632812 12.386719 15.652344 12.070312 15.648438 C 12.023438 15.648438 11.972656 15.648438 11.921875 15.648438 C 11.757812 15.652344 11.59375 15.652344 11.429688 15.648438 C 11.3125 15.652344 11.195312 15.652344 11.078125 15.652344 C 10.757812 15.652344 10.441406 15.652344 10.121094 15.652344 C 9.851562 15.652344 9.585938 15.652344 9.320312 15.652344 C 8.691406 15.652344 8.0625 15.652344 7.433594 15.652344 C 6.785156 15.652344 6.132812 15.652344 5.484375 15.65625 C 4.929688 15.65625 4.371094 15.65625 3.8125 15.65625 C 3.480469 15.65625 3.148438 15.65625 2.816406 15.65625 C 2.503906 15.65625 2.1875 15.65625 1.875 15.65625 C 1.761719 15.65625 1.644531 15.65625 1.53125 15.65625 C 1.375 15.65625 1.21875 15.65625 1.0625 15.65625 C 1.015625 15.65625 0.96875 15.65625 0.921875 15.65625 C 0.609375 15.652344 0.429688 15.570312 0.1875 15.375 C -0.0703125 15.085938 -0.0273438 14.738281 -0.0273438 14.371094 C -0.0273438 14.304688 -0.0273438 14.238281 -0.0273438 14.167969 C -0.0273438 14.023438 -0.0273438 13.878906 -0.0273438 13.734375 C -0.0273438 13.519531 -0.0273438 13.300781 -0.03125 13.085938 C -0.0390625 11.183594 0.539062 9.503906 1.875 8.125 C 2.074219 7.925781 2.28125 7.742188 2.5 7.5625 C 2.554688 7.515625 2.554688 7.515625 2.609375 7.46875 C 2.761719 7.351562 2.832031 7.300781 3.023438 7.355469 Z M 3.023438 7.355469 "/>
<path style=" stroke:none;fill-rule:nonzero;fill:rgb(100%,100%,100%);fill-opacity:1;" d="M 26.875 16.625 C 26.921875 16.648438 26.972656 16.667969 27.023438 16.691406 C 27.9375 17.148438 28.488281 17.945312 28.820312 18.886719 C 28.996094 19.640625 28.964844 20.546875 28.625 21.25 C 28.601562 21.296875 28.582031 21.347656 28.558594 21.398438 C 28.101562 22.3125 27.304688 22.863281 26.363281 23.195312 C 25.613281 23.367188 24.695312 23.34375 24 23 C 23.9375 22.96875 23.875 22.9375 23.808594 22.90625 C 22.910156 22.421875 22.386719 21.703125 22.0625 20.75 C 21.851562 20.019531 21.921875 19.050781 22.25 18.375 C 22.273438 18.328125 22.292969 18.277344 22.316406 18.226562 C 22.773438 17.3125 23.570312 16.761719 24.511719 16.429688 C 25.265625 16.253906 26.171875 16.285156 26.875 16.625 Z M 26.875 16.625 "/>
<path style=" stroke:none;fill-rule:nonzero;fill:rgb(100%,100%,100%);fill-opacity:1;" d="M 8 0.25 C 8.046875 0.273438 8.097656 0.292969 8.148438 0.316406 C 9.0625 0.773438 9.613281 1.570312 9.945312 2.511719 C 10.121094 3.265625 10.089844 4.171875 9.75 4.875 C 9.726562 4.921875 9.707031 4.972656 9.683594 5.023438 C 9.226562 5.9375 8.429688 6.488281 7.488281 6.820312 C 6.738281 6.992188 5.820312 6.96875 5.125 6.625 C 5.0625 6.59375 5 6.5625 4.933594 6.53125 C 4.035156 6.046875 3.511719 5.328125 3.1875 4.375 C 2.976562 3.644531 3.046875 2.675781 3.375 2 C 3.398438 1.953125 3.417969 1.902344 3.441406 1.851562 C 3.898438 0.9375 4.695312 0.386719 5.636719 0.0546875 C 6.390625 -0.121094 7.296875 -0.0898438 8 0.25 Z M 8 0.25 "/>
</g>
</svg>
