<?xml version="1.0" encoding="UTF-8"?>
<svg id="b" data-name="레이어 2" xmlns="http://www.w3.org/2000/svg" xmlns:xlink="http://www.w3.org/1999/xlink" viewBox="0 0 284.96 283.03">
  <defs>
    <style>
      .e {
        fill: #0383ad;
      }

      .f {
        fill: #0ff6f0;
      }

      .g {
        fill: #f61df7;
      }

      .h {
        fill: url(#d);
      }

      .i {
        fill: #fa19f5;
      }

      .j {
        fill: #1be9e4;
      }

      .k {
        fill: #30c5cf;
      }

      .l {
        fill: #0df7f0;
      }

      .m {
        fill: #057fac;
      }

      .n {
        fill: #e421f6;
      }

      .o {
        fill: #0fe7e9;
      }

      .p {
        fill: #08a6bf;
      }

      .q {
        fill: #29cfe5;
      }
    </style>
    <linearGradient id="d" data-name="무제 그라디언트 24" x1="143.38" y1="402.52" x2="143.38" y2="145.33" gradientUnits="userSpaceOnUse">
      <stop offset=".44" stop-color="#c0f"/>
      <stop offset=".57" stop-color="#9734f1"/>
      <stop offset=".86" stop-color="#13b8d0"/>
      <stop offset=".9" stop-color="#0cc"/>
    </linearGradient>
  </defs>
  <g id="c" data-name="레이어 1">
    <g>
      <path class="p" d="m79.85,134.63q1.11,0,2.24-.01c2.47-.01,4.95-.02,7.42-.03,1.78,0,3.55-.02,5.33-.02,5.83-.03,11.65-.04,17.48-.06,2.01,0,4.01-.01,6.02-.02,8.34-.02,16.68-.04,25.03-.05,11.96-.02,23.91-.05,35.86-.11,8.41-.04,16.82-.06,25.22-.06,5.02,0,10.04-.02,15.07-.05,4.72-.03,9.44-.04,14.16-.02,1.73,0,3.47,0,5.2-.03,2.37-.02,4.73-.01,7.09,0,.69-.01,1.37-.03,2.08-.04,3.76.06,5.26.57,8.2,3,4.63,5.68,4.5,9.2,4.47,16.27q.02,1.44.05,2.91c0,7.21-.65,13.93-5.16,19.8-.64.53-1.29,1.05-1.95,1.6q-.95.82-1.92,1.65c-5.98,3.62-12.26,3.74-19.07,3.78q-1.38.01-2.79.03c-1.94.01-3.88.02-5.82.03-2.94.01-5.88.06-8.83.11-11.26.1-19.98.03-28.52-8.11-.66-.84-1.31-1.69-1.99-2.55-3.22-4.11-6.21-6.63-11.31-7.88-4.15-.46-8.26-.51-12.44-.5-1.09-.03-2.19-.06-3.31-.09-6.4-.02-10.58.6-15.74,4.51q-1.5,1.08-3.5,1.08c-.27.6-.53,1.19-.8,1.81-1.23,2.26-2.39,3.57-4.32,5.25-.54.49-1.08.97-1.63,1.47-6.46,4.22-12.61,4.92-20.11,4.9q-1.38,0-2.79.02c-1.94,0-3.88,0-5.82,0-2.95,0-5.89.02-8.83.05-1.89,0-3.79,0-5.68,0q-1.3.02-2.63.03c-7.16-.08-13.46-1.77-18.75-6.78-.54-.76-1.07-1.52-1.62-2.31-.56-.76-1.11-1.53-1.69-2.32-3.26-5.26-2.53-11.01-2.56-17-.02-1.09-.04-2.18-.06-3.3,0-1.05-.01-2.11-.02-3.19,0-.96-.02-1.92-.03-2.91.43-3.25,1.42-5.09,3.36-7.72,4.91-3.27,9.68-3.15,15.44-3.15Z"/>
      <path class="k" d="m67.13,109.38q1.26-.01,2.55-.02c2.8-.02,5.6-.02,8.4-.01,2.01,0,4.03-.02,6.04-.03,5.46-.03,10.92-.03,16.38-.04,3.41,0,6.83,0,10.24-.02,11.92-.03,23.83-.04,35.75-.04,11.1,0,22.19-.03,33.28-.08,9.54-.04,19.07-.06,28.61-.05,5.69,0,11.38,0,17.07-.04,5.35-.03,10.71-.03,16.06,0,1.96,0,3.92,0,5.88-.02,11.58-.1,20.11.08,28.88,8.55,6.36,6.63,8.76,13.67,8.68,22.72,0,.89,0,1.78.01,2.7,0,1.87,0,3.75-.02,5.62-.02,2.83,0,5.66.03,8.48.02,14.43-1.3,27.55-11.55,38.68-5.72,5.01-11.65,8.14-19,10-.59.17-1.18.34-1.78.52-2.6.56-5,.63-7.67.66-1.09.01-2.18.03-3.31.04-1.18,0-2.35.01-3.56.02-1.22,0-2.43.02-3.68.02-2.57.01-5.15.02-7.72.03-3.92.02-7.84.06-11.76.11-2.5.01-5.01.02-7.51.03q-1.75.03-3.53.05c-9.58-.03-16.36-2.25-23.71-8.48-.79-.66-1.58-1.32-2.39-2q-2.36-2-4.59-4.19c-5.63-3.68-12.94-3.12-19.45-2.38-5.19,1.27-8.25,4.89-11.68,8.77-4.51,4.77-9.62,7.57-16.24,7.94q-1.48.01-2.99.03c-1.12.01-2.24.03-3.4.04-1.21,0-2.42.01-3.67.02q-1.88.01-3.8.02c-2.66.01-5.31.02-7.97.03-2.7,0-5.41.03-8.11.06-3.92.04-7.83.06-11.75.07-1.19.02-2.39.04-3.62.05-12.64-.03-23.82-3.52-33.07-12.36-8.38-9.05-11.31-19.07-11.44-31.23-.01-.85-.02-1.7-.03-2.57-.02-1.78-.03-3.57-.04-5.35-.02-2.7-.08-5.39-.14-8.08-.16-12.72,1.8-21.66,10.5-31.45,5.79-5.83,13.02-6.89,20.84-6.84Zm-19.72,19.4c-2.56,5.09-3.46,9.23-3.43,14.95,0,.74-.01,1.48-.02,2.25,0,1.56,0,3.12,0,4.68,0,2.35-.02,4.7-.05,7.06-.05,10.87.8,20.94,8.5,29.38.66.76,1.32,1.52,2,2.3,9.11,7.25,17.59,9.29,29.05,9.11q1.95,0,3.93,0c2.72,0,5.45-.02,8.17-.06,3.47-.05,6.95-.05,10.42-.03,3.35,0,6.69-.02,10.04-.04,1.24,0,2.48,0,3.75,0,7.93-.13,12.57-1.01,18.6-6.35q.76-.84,1.53-1.69c4.48-4.93,8.61-8.72,15.46-9.26,1.8-.03,3.61-.03,5.41.01q1.41.02,2.84.04c7.14.27,11.66,1.49,16.78,6.65,1.6,1.42,3.21,2.84,4.81,4.25q1.06,1,2.14,2.02c3.84,3.26,6.73,3.99,11.75,4.02q1.72.02,3.48.04c1.24,0,2.48,0,3.75,0,1.28,0,2.56.01,3.88.02,2.71.01,5.42.02,8.14.01,3.45,0,6.9.03,10.35.06,3.32.03,6.63.03,9.95.03q1.84.02,3.72.04c8.71-.05,16.24-1.43,23.34-6.75,10.21-10.45,11.21-22.52,11.13-36.45,0-2.43.02-4.86.05-7.29q.05-11.08-4.5-21.01c-.62-.93-1.24-1.86-1.88-2.81-3.58-3.68-6.9-5.07-12.01-5.57-1.5-.02-2.99-.02-4.49,0q-1.24,0-2.51-.02c-2.77-.01-5.54,0-8.31,0-1.99,0-3.98-.01-5.97-.02-5.4-.02-10.8-.02-16.2-.01-4.51,0-9.02,0-13.52,0-10.64-.01-21.27-.01-31.91,0-10.97.01-21.94,0-32.91-.03-9.42-.02-18.84-.03-28.26-.02-5.63,0-11.25,0-16.88-.02-5.29-.02-10.58-.01-15.87,0-1.94,0-3.88,0-5.82,0-2.65-.01-5.3,0-7.95.02-.77,0-1.53-.02-2.32-.03-8.22.11-13.42,3.78-18.19,10.53Z"/>
      <path class="j" d="m252.41,2.78c13.24,8.61,15.87,27.17,19.05,41.55,3.14,16.34,2.29,33.33,2.16,49.9,0,.85,0,1.69-.01,2.57q-.07,5.86-1.19,6.98c-2,.04-4,.04-6,0-1.33-2.66-1.06-4.58-.99-7.55q1.41-43.73-14.34-83.14c-2.64-2.65-5.23-3.68-8.86-3.99-14.54.99-28.34,16.41-37.37,26.7-7.01,8.59-13.45,17.66-19.44,26.99-3.84-.43-7.54-.89-11.3-1.75-20.98-4.75-44.79-3.72-65.7.75-2.66.38-5.33.7-8,1-.39-.56-.78-1.12-1.18-1.7-1.21-1.74-2.43-3.47-3.64-5.2-1.5-2.14-2.98-4.28-4.45-6.43-11.12-16.15-25.53-33.22-44.73-39.68-4.76-.39-8.07.21-11.75,3.31-9.97,14.45-12.06,33.71-14.25,50.69-.1.67-.2,1.34-.3,2.03-.93,6.97-.85,13.97-.83,20.99,0,2.17,0,4.34,0,6.52,0,1.4,0,2.8,0,4.19q0,1.88,0,3.79c.12,3.25.54,6.28,1.13,9.48.11,2.68.05,5.32,0,8h-6c-2.11-8.03-3.16-15.68-3.2-23.98,0-.86-.01-1.71-.02-2.59,0-1.81-.02-3.62-.02-5.43,0-2.7-.04-5.4-.07-8.1-.1-15.58,1.61-30.74,6.06-45.71.26-.87.51-1.74.77-2.64,3.26-10.67,7.34-21.53,16.48-28.55,5.31-2.66,12.68-1.76,18.14.02,7.51,3.56,13.68,8.48,19.86,13.98q.74.64,1.5,1.3c9.84,8.54,17.78,17.97,25.06,28.76q.66.98,1.34,1.99,3.1,4.7,3.1,6.95c.85-.28,1.69-.55,2.56-.84,1.13-.36,2.27-.72,3.44-1.1,1.11-.36,2.23-.72,3.38-1.09,6.51-1.75,12.97-2.13,19.68-2.18q1.12,0,2.26-.02c1.58,0,3.15-.02,4.73-.02,2.35,0,4.7-.04,7.05-.07,10.61-.07,20.52,1.14,30.9,3.31,1.67.33,3.33.67,5,1,.27-.55.53-1.11.81-1.68,4.54-8.85,10.43-16.1,17.19-23.32,1.19-1.37,2.38-2.74,3.56-4.12,11.45-13.02,29.95-31.78,48.44-21.88Z"/>
      <path class="h" d="m11.41,191.78c1.28-.06,2.56-.12,3.88-.19q1.08-.05,2.18-.11c.64.1,1.28.19,1.95.29,2.03,3.05,2.54,5.35,3.19,8.9,3.7,19.97,14.54,34.83,30.99,46.59,23.04,15.57,50.97,24.99,78.82,25.51,1,.02,2,.04,3.03.06,39.5.68,80.59-5.1,111.04-32.8,9.71-9.4,15.57-18.47,19.92-31.27h9c-1.65,12.37-7.65,22.02-16,31-.76.84-1.52,1.68-2.31,2.55-15.73,16.61-36.82,27.43-58.69,33.45-.69.19-1.39.39-2.1.58-33.41,9-69.64,8.98-102.9-.58-.82-.23-1.63-.46-2.47-.7-28.4-8.26-56-24.84-70.78-51.3-4.92-9.23-9.43-21.4-8.75-32Z"/>
      <path class="e" d="m77.11,134.67q1.35,0,2.73,0c.96,0,1.92.01,2.9.02q1.49,0,3.01,0c3.16,0,6.32.02,9.48.03,2.15,0,4.29,0,6.44.01,5.25.01,10.5.03,15.75.05-.93,1.74-1.86,3.47-2.8,5.2-.52.97-1.04,1.93-1.57,2.93-2,3.53-4.28,6.79-6.65,10.08-2.38,3.36-4.65,6.79-6.92,10.23q-10.78,16.28-14.06,19.56c-6.06.63-10.9-.61-16-4-7.43-7.68-8.2-13.52-8.25-23.88-.02-1.09-.04-2.18-.06-3.3,0-1.05-.01-2.11-.02-3.19,0-.96-.02-1.92-.03-2.91.43-3.25,1.42-5.09,3.36-7.72,4.15-2.77,7.79-3.13,12.7-3.11Z"/>
      <path class="m" d="m250.11,134.11c5.31,1.07,7.41,4.32,10.3,8.67.44,3.53.32,7.07.31,10.62q.02,1.44.05,2.91c0,7.21-.65,13.93-5.16,19.8-.64.53-1.29,1.05-1.95,1.6-.63.55-1.27,1.09-1.92,1.65-7.26,4.4-15.04,3.65-23.27,3.54q-1.88-.01-3.81-.03c-3.09-.02-6.17-.06-9.26-.1,1.97-4.05,4.3-7.81,6.69-11.62q.68-1.08,1.37-2.18c2.86-4.54,5.81-8.99,8.97-13.33,1.7-2.45,3.27-4.93,4.83-7.47q.78-1.24,1.57-2.5c1.04-1.66,2.06-3.32,3.05-5q3.64-5.73,8.23-6.56Z"/>
      <path class="f" d="m126.83,133.99c1.14.08,2.28.15,3.46.23,1.17.04,2.33.08,3.53.12,2.87.11,5.73.25,8.59.44-4.76,7.65-9.7,15.15-14.91,22.49-2.91,4.13-5.5,8.18-7.72,12.73q-5.04,9.83-9.37,12.77c-8.15,2.11-16.75,1.12-25,0,3.3-5.26,6.6-10.5,10.19-15.56,4.42-6.23,8.62-12.61,12.85-18.97.5-.73,1-1.45,1.51-2.2q1.51-2.26,2.71-4.81c3.55-6.71,6.72-7.44,14.16-7.25Z"/>
      <path class="n" d="m45.41,34.78c12.94,2.35,20.86,15.89,28.1,25.9q3.9,5.69,3.9,8.1-6.62,4-10,4-1.94-2.15-4-4.94-2.79-3.99-7-6.06-.04,1.83-.09,3.69-.63,12.75-4.06,16.92c-2.55,1.72-5.07,3.08-7.85,4.39-1.18.79-2.35,1.6-3.5,2.44q-2.5,1.56-4.5,1.56c-.52-10.98.22-21.61,1.69-32.5.15-1.18.3-2.36.45-3.58,1.08-7.45,3.03-13.43,6.86-19.92Z"/>
      <path class="g" d="m239.08,34.9q2.34.88,3.96,3.62c4.51,12.42,5.55,25.05,5.5,38.12q0,1.71.01,3.45c0,1.09,0,2.17,0,3.29,0,.99,0,1.97,0,2.99q-.13,2.4-1.13,4.4c-1.34-.66-2.67-1.33-4-2-.98-.48-1.97-.96-2.98-1.45-3.47-1.94-6.22-3.71-9.02-6.55-1.3-4.75-1.17-9.11-1-14l-1-3c-5.65,1.37-8.51,5.68-12,10-2.97-.99-5.94-1.98-9-3,3.22-12.88,16.48-25.91,25.86-34.73q2.14-1.27,4.8-1.14Z"/>
      <path class="l" d="m246.41,134.78c-2.72,5-5.48,9.91-8.69,14.62-.68,1.01-1.37,2.03-2.07,3.07-.74,1.09-1.48,2.18-2.24,3.3-1.24,1.86-2.48,3.72-3.72,5.58-.85,1.28-1.71,2.55-2.58,3.82-2.05,3-3.93,5.96-5.55,9.22-1.82,3.4-3.23,5.85-6.15,8.38-6.56,1.36-14.11,1.67-20-2,.55-3.85,1.55-6.16,3.88-9.25,2.81-3.86,5.47-7.79,8.04-11.82.94-1.47,1.89-2.92,2.85-4.37,2.33-3.52,4.5-6.99,6.39-10.77,6.81-12.66,16.6-11.37,29.84-9.79Z"/>
      <path class="q" d="m169.41,199.78q3.25,2,5,4c-.29,3.99-1.08,6.33-3.56,9.38-3.08,4.04-3.07,6.61-2.44,11.62,1.56,4.02,2.39,5.59,6,8,4.66.76,8.17.43,12.38-1.75,2.29-1.97,4-3.72,5.62-6.25l5,1c-.18,4.47-.49,6.46-3.62,9.75-7.15,5.11-13.63,6.38-22.38,5.25-3.19-1.28-5.42-2.85-7-6-2,.99-3.98,1.99-5.94,3.07-6.96,3.56-13.79,4.06-21.43,2.42-4.6-1.51-7.49-3.88-10.63-7.49l-1-1c-.04-2-.04-4,0-6,1.65-.33,3.3-.66,5-1q1.08,1.42,2.19,2.88c3.03,3.57,5.35,4.89,10.11,5.34,5.69.22,9.73-.42,14.71-3.21,2.84-4.26,2.89-8,2-13-1.37-2.27-2.93-4.17-4.65-6.18q-1.35-1.82-1.98-5.13.62-2.69,2.29-4.33c4.39-2.56,9.42-2,14.33-1.36Z"/>
      <path class="o" d="m11.74,127.49c1.03,0,2.06.02,3.12.03q1.61.04,3.25.08c1.08.01,2.17.03,3.28.04,2.68.04,5.35.08,8.03.15v9c-6.27.33-12.54.66-19,1-1.75,5.26-1.18,10.87-1.19,16.38-.01,1.21-.02,2.43-.04,3.68-.01,8.16.74,15.92,2.22,23.95H3.41C.04,173.93-.05,166.41.02,158.01c.02-2.3,0-4.59-.02-6.88q-.02-15.82,4.68-22.03c2.41-1.84,4.05-1.67,7.05-1.62Z"/>
      <path class="i" d="m169.41,199.78q3.25,2,5,4c-.34,4.61-1.55,8-4.35,11.62-2.68,2.24-5.01,2.4-8.43,2.13-3.59-1.22-5.2-3.45-7.19-6.59-1.42-2.98-1.79-4.93-1.04-8.17,4.48-4.41,10.11-3.76,16-3Z"/>
    </g>
  </g>
</svg>