<?xml version="1.0" encoding="UTF-8"?>
<svg xmlns="http://www.w3.org/2000/svg" xmlns:xlink="http://www.w3.org/1999/xlink" width="32px" height="32px" viewBox="0 0 32 32" version="1.1">
<g id="surface1">
<path style=" stroke:none;fill-rule:nonzero;fill:rgb(100%,100%,100%);fill-opacity:1;" d="M 13.597656 7.046875 C 14.316406 7.5 15.019531 7.539062 15.84375 7.527344 C 16.011719 7.527344 16.179688 7.527344 16.347656 7.527344 C 17.292969 7.527344 18 7.335938 18.796875 6.804688 C 19.753906 6.167969 20.757812 5.769531 21.875 5.5 C 21.941406 5.484375 22.007812 5.464844 22.078125 5.449219 C 23.648438 5.121094 25.273438 5.480469 26.625 6.3125 C 28.234375 7.414062 29.242188 9.015625 30.066406 10.75 C 30.105469 10.832031 30.144531 10.914062 30.183594 10.996094 C 31.367188 13.410156 32 16.246094 32.011719 18.925781 C 32.011719 19.027344 32.011719 19.027344 32.015625 19.132812 C 32.015625 19.351562 32.015625 19.566406 32.015625 19.785156 C 32.015625 19.859375 32.015625 19.933594 32.015625 20.011719 C 32.015625 21.082031 31.996094 22.128906 31.8125 23.1875 C 31.796875 23.269531 31.796875 23.269531 31.785156 23.355469 C 31.589844 24.472656 31.277344 25.558594 30.3125 26.25 C 29.671875 26.648438 28.929688 26.734375 28.191406 26.589844 C 27.132812 26.246094 26.265625 25.390625 25.46875 24.648438 C 25.378906 24.566406 25.285156 24.484375 25.195312 24.402344 C 24.660156 23.921875 24.171875 23.402344 23.6875 22.875 C 23.621094 22.804688 23.554688 22.734375 23.492188 22.660156 C 23.324219 22.484375 23.164062 22.304688 23 22.125 C 22.953125 22.074219 22.90625 22.023438 22.859375 21.972656 C 22.820312 21.925781 22.78125 21.882812 22.738281 21.835938 C 22.703125 21.796875 22.667969 21.757812 22.632812 21.71875 C 22.5625 21.625 22.5625 21.625 22.5625 21.5 C 22.527344 21.484375 22.492188 21.464844 22.453125 21.445312 C 22.3125 21.375 22.3125 21.375 22.1875 21.296875 C 22.144531 21.273438 22.101562 21.246094 22.054688 21.21875 C 22.011719 21.191406 21.96875 21.164062 21.925781 21.140625 C 21.355469 20.890625 20.738281 20.917969 20.128906 20.921875 C 20.03125 20.921875 19.929688 20.921875 19.832031 20.921875 C 19.5625 20.921875 19.292969 20.921875 19.023438 20.921875 C 18.742188 20.921875 18.460938 20.921875 18.179688 20.921875 C 17.707031 20.921875 17.234375 20.921875 16.757812 20.921875 C 16.214844 20.921875 15.667969 20.921875 15.121094 20.921875 C 14.652344 20.921875 14.183594 20.921875 13.710938 20.921875 C 13.429688 20.921875 13.152344 20.921875 12.871094 20.921875 C 12.609375 20.921875 12.34375 20.921875 12.082031 20.921875 C 11.984375 20.921875 11.886719 20.921875 11.792969 20.921875 C 10.859375 20.917969 10.859375 20.917969 9.980469 21.207031 C 9.933594 21.230469 9.882812 21.253906 9.832031 21.28125 C 9.652344 21.398438 9.523438 21.53125 9.375 21.6875 C 9.34375 21.722656 9.308594 21.757812 9.273438 21.792969 C 9.164062 21.910156 9.054688 22.027344 8.945312 22.144531 C 8.890625 22.203125 8.890625 22.203125 8.835938 22.261719 C 8.648438 22.464844 8.464844 22.664062 8.285156 22.871094 C 7.667969 23.582031 7.015625 24.25 6.3125 24.875 C 6.261719 24.921875 6.210938 24.96875 6.160156 25.015625 C 5.25 25.863281 4.230469 26.667969 2.9375 26.640625 C 2.296875 26.609375 1.773438 26.378906 1.3125 25.9375 C 1.277344 25.90625 1.242188 25.871094 1.207031 25.839844 C 0.0664062 24.632812 -0.0078125 22.382812 -0.0117188 20.816406 C -0.0117188 20.746094 -0.0117188 20.675781 -0.015625 20.605469 C -0.015625 20.382812 -0.015625 20.160156 -0.015625 19.9375 C -0.015625 19.863281 -0.015625 19.785156 -0.015625 19.707031 C -0.015625 18.625 0.0078125 17.570312 0.1875 16.5 C 0.203125 16.398438 0.203125 16.398438 0.21875 16.292969 C 0.734375 13.078125 1.9375 9.832031 4.125 7.375 C 4.164062 7.328125 4.207031 7.285156 4.246094 7.238281 C 6.820312 4.496094 10.761719 5.128906 13.597656 7.046875 Z M 20.8125 9.6875 C 20.5625 10.074219 20.445312 10.476562 20.5 10.9375 C 20.625 11.410156 20.777344 11.816406 21.199219 12.089844 C 21.679688 12.363281 22.070312 12.429688 22.625 12.375 C 23.113281 12.234375 23.472656 11.917969 23.75 11.5 C 23.949219 11.089844 23.984375 10.691406 23.875 10.25 C 23.699219 9.742188 23.410156 9.386719 22.945312 9.117188 C 22.15625 8.769531 21.363281 9.074219 20.8125 9.6875 Z M 7.875 10.375 C 7.875 11.117188 7.875 11.859375 7.875 12.625 C 7.132812 12.625 6.390625 12.625 5.625 12.625 C 5.40625 13.164062 5.40625 13.164062 5.34375 13.6875 C 5.34375 13.742188 5.34375 13.796875 5.34375 13.855469 C 5.390625 14.164062 5.519531 14.457031 5.625 14.75 C 6.328125 14.75 7.027344 14.75 7.75 14.75 C 7.726562 15.796875 7.726562 15.796875 7.714844 16.125 C 7.714844 16.210938 7.714844 16.300781 7.714844 16.386719 C 7.710938 16.429688 7.710938 16.476562 7.707031 16.519531 C 7.703125 16.667969 7.703125 16.667969 7.75 16.875 C 8.113281 17.1875 8.5 17.269531 8.964844 17.242188 C 9.292969 17.203125 9.695312 17.117188 9.9375 16.875 C 9.941406 16.71875 9.945312 16.5625 9.945312 16.402344 C 9.945312 16.363281 9.945312 16.320312 9.945312 16.277344 C 9.941406 16.121094 9.941406 15.964844 9.941406 15.808594 C 9.941406 15.460938 9.9375 15.109375 9.9375 14.75 C 10.679688 14.75 11.421875 14.75 12.1875 14.75 C 12.410156 14.191406 12.410156 14.191406 12.472656 13.652344 C 12.476562 13.558594 12.476562 13.558594 12.476562 13.464844 C 12.433594 13.167969 12.433594 13.167969 12.125 12.625 C 11.421875 12.625 10.722656 12.625 10 12.625 C 10 11.902344 10 11.179688 10 10.4375 C 9.585938 10.28125 9.292969 10.179688 8.863281 10.171875 C 8.808594 10.171875 8.753906 10.167969 8.699219 10.167969 C 8.417969 10.195312 8.148438 10.292969 7.875 10.375 Z M 25.125 12.25 C 24.863281 12.65625 24.773438 13.113281 24.832031 13.59375 C 24.949219 14.101562 25.273438 14.484375 25.695312 14.78125 C 26.125 15.007812 26.644531 15.023438 27.101562 14.890625 C 27.589844 14.6875 27.886719 14.402344 28.125 13.9375 C 28.316406 13.429688 28.296875 13.019531 28.082031 12.527344 C 27.800781 12.007812 27.425781 11.746094 26.875 11.5625 C 26.160156 11.492188 25.601562 11.703125 25.125 12.25 Z M 20.9375 14.3125 C 20.613281 14.753906 20.464844 15.132812 20.5 15.6875 C 20.621094 16.203125 20.855469 16.644531 21.3125 16.9375 C 21.796875 17.1875 22.1875 17.269531 22.71875 17.117188 C 23.226562 16.929688 23.582031 16.613281 23.8125 16.125 C 23.976562 15.714844 23.976562 15.277344 23.824219 14.859375 C 23.589844 14.367188 23.265625 14.015625 22.742188 13.828125 C 22.082031 13.648438 21.417969 13.816406 20.9375 14.3125 Z M 20.9375 14.3125 "/>
</g>
</svg>
