<?xml version="1.0" encoding="UTF-8"?>
<svg id="b" data-name="레이어 2" xmlns="http://www.w3.org/2000/svg" xmlns:xlink="http://www.w3.org/1999/xlink" viewBox="0 0 299.86 283.13">
  <defs>
    <style>
      .e {
        fill: #1aeae5;
      }

      .f {
        fill: #13f0e7;
      }

      .g {
        fill: url(#d);
      }

      .h {
        fill: #f41df7;
      }
    </style>
    <linearGradient id="d" data-name="무제 그라디언트 37" x1="149.93" y1="314.49" x2="149.93" y2="31.37" gradientUnits="userSpaceOnUse">
      <stop offset=".14" stop-color="#c0f"/>
      <stop offset=".2" stop-color="#a334f9"/>
      <stop offset=".33" stop-color="#3fb8ea"/>
      <stop offset=".38" stop-color="#1aeae5"/>
    </linearGradient>
  </defs>
  <g id="c" data-name="레이어 1">
    <g>
      <g>
        <path class="g" d="m61.28,1.97c.06.02.11.05.17.07,17.53,8.77,30.66,24.31,41.48,40.24.41.6.82,1.21,1.24,1.83,2.13,3.15,4.24,6.31,6.31,9.49.27.42.75.65,1.25.61,4.47-.35,8.92-.73,13.35-1.45,20.42-3.3,42.73-2.84,62.87,2.26.58.15,1.18-.1,1.49-.61.47-.77.94-1.54,1.42-2.33,7.11-11.58,14.77-21.87,24.06-31.82.8-.86,1.59-1.72,2.41-2.61,5.63-5.89,11.48-10.4,18.59-14.39l1.79-1.09c.08-.05.15-.09.24-.12,5.6-2.21,12.95-1.9,18.53.18.1.04.2.08.29.14,10.47,6.52,15.47,18.87,18.32,30.41,2.3,9.9,3.99,19.52,4.04,29.71,0,.88.01,1.76.02,2.67,0,1.86.02,3.72.02,5.58,0,2.78.04,5.56.07,8.35.06,10.4-.65,20.2-2.67,30.41-.96,5.6-1.16,9.42,1.54,14.45,5.11,10.63,8.59,23.48,8.81,35.31.01.69.03,1.38.04,2.09.22,13.08.26,14.95-.56,18.14-.23.88.45,1.74,1.36,1.71l.71-.02c1.1-.02,2.19-.04,3.32-.05,1.07-.02,2.14-.05,3.24-.07.04,0,.09,0,.13,0,2.51.17,2.75.2,4.27,1.71.3.3.45.73.4,1.15-.43,3.47-.53,3.9-1.51,4.92-.25.26-.6.42-.96.43-2,.06-4.01.06-6.01.05-1.2,0-2.4-.02-3.63-.03-.57,0-1.14-.01-1.71-.02-.64,0-1.2.43-1.35,1.05-.17.72-.34,1.45-.52,2.19-.35,1.44-.7,2.87-1.04,4.31-.17.7-.33,1.41-.5,2.13-1.02,4.19-2.35,8.01-4.06,11.91-.33.75.05,1.61.83,1.86l.27.09c4.6,1.5,9.04,3.15,13.46,5.09.5.22.82.72.82,1.26v3.41c0,.44-.21.85-.56,1.11-.97.7-1.28.84-3.03,1.45-.26.09-.56.1-.82.03-2.35-.64-4.44-1.34-6.71-2.26-4.02-1.75-4.29-1.87-8-2.48-.53-.09-1.08.15-1.37.6-.75,1.13-.91,1.45-1.94,3.44-10.14,17.38-25.31,29.97-42.56,39.81-.97.56-1.95,1.13-2.95,1.71-37.85,20.41-89.99,21.28-130.61,9.48-19.71-6.82-39.58-17.48-54.07-32.79-.24-.26-.67-.66-.67-1.01l-.72-.82c0-.75.4-.56-.35-.56h0c-.4,0-.79-.18-1.05-.48-1.56-1.82-3.02-3.66-4.46-5.58-.43-.56-.87-1.12-1.32-1.7-2.76-3.63-5.09-7.35-7.3-11.31-.3-.54-.93-.82-1.53-.66l-2.42.62c-.72.18-1.45.36-2.19.54-1.62.4-3.23.81-4.84,1.23q-1.19.3-2.41.6l-2.14.55c-.07.02-.14.03-.22.04l-1.13.1c-.41.04-.81-.11-1.1-.41-1.52-1.54-1.55-1.75-1.66-4.09,0-.05,0-.1,0-.14l.08-1.43c.03-.53.36-1,.86-1.2,1.83-.73,3.66-1.45,5.5-2.17,1.17-.46,2.34-.93,3.55-1.41,2.27-.79,2.9-1.01,4.21-1.07.93-.04,1.55-.99,1.21-1.86l-.56-1.45c-.55-1.45-1.11-2.89-1.66-4.34-.28-.71-.56-1.43-.84-2.16-1.4-3.69-2.46-7.15-3.05-11.01-.1-.69-.69-1.19-1.38-1.18-.51.01-1.03.03-1.56.04-1.19.02-2.38.04-3.6.05-1.16.02-2.33.05-3.53.07-.04,0-.08,0-.12,0-2.72-.17-2.97-.2-4.49-1.71-.3-.3-.45-.73-.4-1.15.43-3.47.53-3.9,1.51-4.93.25-.26.59-.42.95-.43,1.84-.06,3.67-.06,5.51-.04,1.1,0,2.21.02,3.35.03.27,0,.49,0,.67,0,.94.01,1.61-.91,1.31-1.8l-.34-1.01c-.04-.11-.06-.23-.07-.35-1.35-19.41.09-40.56,10.14-57.74.04-.06.07-.13.1-.2,2.06-5.12.52-10.7-.66-15.88-1.63-7.64-2.33-15.18-2.56-23-.03-.74-.05-1.48-.08-2.24-.78-23.62.73-53.41,15.97-72.7.04-.04.07-.09.11-.13C43.17-.41,51.46-1.7,61.28,1.97Zm-20.92,13.31s-.07.1-.11.15c-10.69,16.66-11.84,36.58-11.72,55.78.02,3,0,6.01-.02,9.01,0,10.44.59,20.22,2.85,30.42,0,.04.01.07.02.11.99,6.6-.72,11.64-3.34,17.66-5.11,12.21-7.32,24.67-7.25,37.88,0,.76,0,1.51-.01,2.29,0,4.63.37,9.08.99,13.65.08.62.59,1.11,1.21,1.18l2.3.25c20.86,2.33,21.79,2.43,26.01,5.22.38.25.62.68.62,1.14v2.27c0,.6-.4,1.14-.98,1.31-2.31.7-3.34.63-6.01.13-.77-.14-1.54-.28-2.34-.42q-1.2-.23-2.43-.46c-4.98-.93-9.64-1.61-14.64-1.59-.84,0-1.48.79-1.33,1.62,1,5.32,2.31,10.27,4.28,15.33.24.62.91.98,1.57.84,3.89-.84,7.73-1.72,11.55-2.88,2.92-.77,5.39-.99,8.29-.91.61.02,1.13.45,1.28,1.04l.47,1.89c.16.65-.16,1.32-.77,1.59-5.41,2.38-10.96,4.26-16.58,6.08-.74.24-1.15,1.06-.86,1.79,7.5,18.89,27.95,33.52,45.67,42.01,1.93.9,3.88,1.77,5.83,2.64,1.02.47,2.04.94,3.09,1.43,18.43,7.82,38.61,9.79,58.41,9.76.71,0,1.42,0,2.15,0,10.9-.03,21.59-.35,32.35-2.19q1.11-.18,2.24-.36c29.85-4.93,58.29-18.91,77.07-43.2,2.04-2.94,3.62-5.91,5.09-9.11.33-.72-.02-1.57-.76-1.85-4.87-1.83-9.76-3.55-14.7-5.17-.56-.18-.94-.7-.94-1.29v-2.54c0-.79.68-1.43,1.47-1.36,5.31.41,10.06,1.11,15.21,2.79.21.07.44.09.65.05,1.31-.22,2.62-.48,3.92-.77.47-.1.84-.45,1-.9.75-2.22,1.5-4.43,2.25-6.65.24-.7.48-1.4.72-2.12,1.12-3.12,1.28-3.59,1.59-6,.1-.8-.51-1.53-1.32-1.55-5.92-.12-11.39.27-17.25,1.6-2.33.46-4.57.57-6.9.5-.74-.02-1.34-.62-1.34-1.37v-2.73c0-.58.36-1.1.91-1.29,6.14-2.21,12.15-3.48,18.66-4.36.91-.13,1.83-.26,2.77-.39,1.92-.27,3.84-.54,5.76-.8.55-.07,1.01-.47,1.14-1,4.69-18.05-.88-39.42-8.17-55.97-.04-.1-.1-.19-.16-.28-.53-.7-1.06-1.4-1.6-2.12-.07-.09-.13-.19-.18-.3-1.78-4.03-.34-7.3.68-11.52,5.55-26.85,7.53-67.43-6.77-91.87-.03-.04-.05-.09-.08-.13-3.04-4.24-5.92-7.79-10.77-9.86-.12-.05-.26-.09-.39-.11-7.06-1.08-12.08,2.22-17.8,6.03-15.77,11.65-26.89,26.44-36.88,43.15-.86,1.41-1.76,2.79-2.67,4.16-.28.42-.77.66-1.28.61-5.08-.48-10.15-1.03-15.21-1.68-23.87-3.02-46.28-2.94-69.81,2.48-.67.15-1.34-.2-1.58-.84l-.41-1.1c-5.32-12.75-14.78-23.84-24.16-33.79-.69-.76-1.37-1.52-2.08-2.31-6.59-7.05-15.89-15.25-25.71-16.98-.1-.02-.2-.03-.3-.03-5.47.02-9.16,2.1-12.48,6.31Z"/>
        <path class="e" d="m223.49,137.53c1.5.88,2.98,1.79,4.44,2.75.93.6,1.86,1.2,2.81,1.81,6.55,6.55,9.47,14.15,9.56,23.38-.15,9.33-2.11,17.42-8.68,24.32-6.45,5.68-13.76,9.08-22.53,8.81-8.42-1.21-15.51-5.53-20.64-12.23-5.64-8.48-6.44-17.06-5.53-27.08,2.19-8.75,6.75-15.84,14.16-20.96,8.08-4.57,18.04-4.88,26.41-.79Zm-28.5,14.12c-3.54,5.66-5.04,11.99-4.06,18.62,2.16,7.29,4.94,12.78,11.19,17.31,4.89,2.56,9.71,2.64,14.95,1.03,5.93-2.61,10.11-6.66,12.89-12.51,2.63-7.09,3.04-13.79.07-20.88-3.41-6.03-8.48-9.98-15.11-11.95-8.1-1.05-14.89,1.8-19.94,8.38Z"/>
        <path class="f" d="m163.93,187.28q.95,2.79,1,6-1.87,2.68-4.44,5.31-4.15,4.65-5.31,10.56c.39,3.62,1.59,6.16,3.75,9.12v2c3.9,1.3,7.94,1.56,12,1,4.44-2.26,6.78-4.55,9-9l5,1c1.33,3.65,1.03,4.93-.56,8.56-2.62,4.15-5.96,6.83-10.8,8.02-7.67,1.22-13.63,1.26-20.18-3.19q-1.46-1.39-2.46-4.39-.94.74-1.9,1.5c-.82.64-1.63,1.28-2.48,1.94-.81.64-1.62,1.28-2.46,1.93-3.9,2.93-7.18,2.88-11.91,2.94-.7.03-1.41.06-2.13.09-5.18.06-7.98-1.06-12.12-4.4-2.87-2.87-3.92-4.18-4.31-8.25q.31-2.75,1.31-3.75,2.31-.44,5,0,2.19,2.94,4,6c4.18,2.09,9.44,1.43,14,1,3.67-1.71,5.32-2.86,7.38-6.31.86-3.7,1.33-5.88.62-9.69-2.13-2.29-4.37-4.19-6.84-6.11-2.17-1.9-3.18-3.21-4.16-5.89.15-3.14.51-4.51,2.75-6.75,7.35-4.09,19.27-3.9,26.25.75Z"/>
        <path class="h" d="m247.93,34.28c8.5,8.78,6.27,27.23,6.25,38.62,0,.75,0,1.51,0,2.28-.02,7.11-.12,14.06-1.25,21.09q-2,0-4.12-2c-.43-.47-.86-.95-1.3-1.44q-1.56-1.66-3.68-2.94c-2.81-2.07-4.23-3.51-5.89-6.62-1.02-6.93-.49-14.04,0-21-5.76,1.55-8.19,4-11.97,8.42q-2.03,1.58-4.63,1.42c-2.59-.9-4.32-2.07-6.4-3.84.58-3.92,2.47-6.08,5-9.06.81-.97,1.62-1.93,2.46-2.93.84-.99,1.68-1.99,2.54-3.01,1.54-1.92,3.09-3.83,4.62-5.75q11.52-14.09,18.38-13.25Z"/>
        <path class="h" d="m51.93,33.28c3.09-.31,4.62-.24,7.29,1.44,7.41,6.73,13.06,14.33,18.71,22.56.61.86,1.21,1.72,1.84,2.6q3.22,4.77,2.95,7.49-.79,1.91-3.6,3.79-3.19,1.12-5.16.45c-2.34-1.53-3.82-3.21-5.59-5.39q-2.62-3.27-6.44-4.94c.06.55.12,1.11.17,1.68q1.52,16.86-2.45,21.81c-4.25,3.85-8.32,6.6-13.73,8.52-2.16-14.37-2.09-29.79.25-44.12.11-.69.22-1.38.33-2.09.97-5.14,2.96-9.22,5.42-13.78Z"/>
        <path class="e" d="m218.11,140.62q8.56,2.63,15.58,9.65c1.52,21.24.24,21.23,0,24.57q-7.02,7.02-17.55,7.9-10.53-.88-17.55-7.9-1.06-6.58-1.1-14.04c-.06-2.46-.12-4.92-.18-7.46.42-2.17.84-4.34,1.28-6.58q10.53-7.02,19.52-6.14Z"/>
      </g>
      <path class="e" d="m100.41,137.55c1.5.88,2.98,1.79,4.44,2.75.93.6,1.86,1.2,2.81,1.81,6.55,6.55,9.47,14.15,9.56,23.38-.15,9.33-2.11,17.42-8.68,24.32-6.45,5.68-13.76,9.08-22.53,8.81-8.42-1.21-15.51-5.53-20.64-12.23-5.64-8.48-6.44-17.06-5.53-27.08,2.19-8.75,6.75-15.84,14.16-20.96,8.08-4.57,18.04-4.88,26.41-.79Zm-28.5,14.12c-3.54,5.66-5.04,11.99-4.06,18.62,2.16,7.29,4.94,12.78,11.19,17.31,4.89,2.56,9.71,2.64,14.95,1.03,5.93-2.61,10.11-6.66,12.89-12.51,2.63-7.09,3.04-13.79.07-20.88-3.41-6.03-8.48-9.98-15.11-11.95-8.1-1.05-14.89,1.8-19.94,8.38Z"/>
      <path class="e" d="m95.04,140.63q8.56,2.63,15.58,9.65.88,12.29,0,24.57-7.02,7.02-17.55,7.9-10.53-.88-17.55-7.9-1.06-6.58-1.1-14.04c-.06-2.46-.12-4.92-.18-7.46.42-2.17.84-4.34,1.28-6.58q10.53-7.02,19.52-6.14Z"/>
    </g>
  </g>
</svg>