<?xml version="1.0" encoding="UTF-8"?>
<svg version="1.1" xmlns="http://www.w3.org/2000/svg" width="512" height="512">
<path d="M0 0 C0.83137358 -0.00367669 1.66274716 -0.00735338 2.51931387 -0.01114148 C5.3095588 -0.02216824 8.09976646 -0.02602051 10.89002991 -0.02983093 C12.88920713 -0.03609653 14.8883832 -0.04274342 16.88755798 -0.04974365 C23.4587676 -0.07078151 30.02997742 -0.08114833 36.60121155 -0.09111023 C38.86563695 -0.09515841 41.13006223 -0.09927535 43.39448738 -0.10346031 C54.03744404 -0.12251429 64.68039376 -0.13674281 75.3233642 -0.14507228 C87.59385562 -0.15483468 99.86416618 -0.18112737 112.1345939 -0.22157317 C121.62694509 -0.25178362 131.11924459 -0.26654598 140.6116429 -0.26985329 C146.27666821 -0.27219887 151.94150035 -0.28109473 157.60647392 -0.30631447 C162.94252483 -0.32968527 168.27825662 -0.33379224 173.61434555 -0.32355309 C175.56493126 -0.32305974 177.51553315 -0.32932023 179.46607018 -0.34310913 C197.29490611 -0.46201664 211.45218145 2.25879552 225.0738678 14.83467102 C240.18658048 31.03128728 241.04478012 53.94934911 243.9332428 74.83467102 C244.2126522 76.83118356 244.49316191 78.82753941 244.77378201 80.8238821 C245.65327145 87.08128842 246.52396989 93.33987274 247.3888092 99.59931946 C248.27448013 106.0085037 249.17443697 112.41556507 250.08155608 118.82174587 C250.86673734 124.37020706 251.64324496 129.91983611 252.4129889 135.47045994 C252.86986521 138.76455688 253.33063017 142.05796869 253.79779816 145.35063171 C259.18373965 183.4145615 259.18373965 183.4145615 253.43714905 193.02998352 C248.88420513 199.00503341 243.34048533 203.73465229 235.8238678 205.14717102 C225.97104525 206.14745757 218.80892109 204.91565625 210.90370178 198.93965149 C207.84072582 196.35443245 206.19604259 193.74405736 204.4488678 190.10420227 C204.16197083 189.50727066 203.87507385 188.91033905 203.57948303 188.2953186 C199.12961888 178.81310859 195.51908116 168.93314086 191.80335999 159.14692688 C186.32140704 144.7574574 180.80168164 132.02004845 166.20277405 124.86201477 C160.40951596 122.46035206 155.07247746 121.02852254 148.77218628 121.00672913 C147.77848022 121.00101898 146.78477417 120.99530884 145.76095581 120.98942566 C144.68190475 120.9883078 143.6028537 120.98718994 142.49110413 120.98603821 C141.34576202 120.9810733 140.20041992 120.9761084 139.02037048 120.97099304 C135.23220721 120.95639157 131.44408584 120.94957235 127.65589905 120.94404602 C125.0189921 120.93829244 122.38208516 120.93253474 119.74517822 120.92677307 C114.92117408 120.91720944 110.09717893 120.91130808 105.27316648 120.90827632 C98.19387902 120.90380163 91.11478522 120.88627685 84.03555661 120.85727572 C77.88622867 120.83296689 71.73698005 120.82532773 65.58760643 120.82360077 C62.98061253 120.82058066 60.37361932 120.81257388 57.76665688 120.79941559 C54.11215839 120.78228827 50.45812689 120.78425211 46.80360413 120.79072571 C45.73467422 120.78151093 44.66574432 120.77229614 43.56442261 120.76280212 C31.5184714 120.82936831 19.62559005 124.58333315 10.8238678 133.14717102 C6.51079885 138.91054535 3.35577391 144.88176074 0.6363678 151.52217102 C0.26616516 152.40268127 -0.10403748 153.28319153 -0.48545837 154.19038391 C-2.72455361 159.54341594 -4.8950603 164.92353105 -7.0589447 170.30732727 C-7.54596863 171.51533997 -8.03299255 172.72335266 -8.53477478 173.9679718 C-9.48714836 176.33715102 -10.43256774 178.70914035 -11.370224 181.08418274 C-15.31749203 190.938902 -19.64903013 199.46015047 -29.8011322 204.02217102 C-37.89919541 206.60166992 -45.91177539 206.15845233 -53.6136322 202.64717102 C-61.25123277 198.3447232 -64.94723219 192.88836589 -67.7308197 184.71357727 C-69.12733433 176.66524296 -67.71270789 168.55842858 -66.57139587 160.56587219 C-66.31527779 158.72012856 -66.31527779 158.72012856 -66.0539856 156.83709717 C-65.58738817 153.48500151 -65.11527139 150.13377985 -64.64020324 146.78288054 C-64.24263671 143.97302824 -63.84908257 141.16262 -63.45555001 138.35220033 C-62.52602273 131.7139849 -61.59034644 125.07665702 -60.65049744 118.43989563 C-59.68520141 111.62285372 -58.72900716 104.80458114 -57.7775442 97.98559588 C-56.95678579 92.10519655 -56.1309466 86.2255265 -55.30099088 80.3464182 C-54.80693314 76.84662078 -54.31456991 73.34660913 -53.82684898 69.84592247 C-53.28165642 65.9351056 -52.72581888 62.02584008 -52.16905212 58.11665344 C-52.01152466 56.97704163 -51.85399719 55.83742981 -51.69169617 54.6632843 C-49.13196515 36.8858418 -44.71311653 21.33945591 -30.0511322 10.02217102 C-20.7046417 3.43743421 -11.35322452 -0.0026934 0 0 Z M2.8238678 29.14717102 C0.23929836 33.7341202 0.59412884 38.35566126 0.6988678 43.45967102 C0.70789124 44.29562805 0.71691467 45.13158508 0.72621155 45.99287415 C0.74965791 48.04443071 0.78552514 50.09583879 0.8238678 52.14717102 C0.2441925 52.12098694 -0.33548279 52.09480286 -0.932724 52.06782532 C-3.57608095 51.9634649 -6.21900419 51.89872775 -8.8636322 51.83467102 C-10.23164978 51.77182922 -10.23164978 51.77182922 -11.62730408 51.7077179 C-16.2878601 51.62298051 -18.4531246 51.60582362 -22.2855072 54.47529602 C-24.3773416 57.03425071 -24.3773416 57.03425071 -24.7386322 60.20967102 C-24.05791705 63.76451683 -22.97540761 64.92421702 -20.1761322 67.14717102 C-17.82760692 68.32143366 -16.43839155 68.26225275 -13.8245697 68.24482727 C-12.54839783 68.23999329 -12.54839783 68.23999329 -11.2464447 68.23506165 C-9.91226501 68.22249329 -9.91226501 68.22249329 -8.5511322 68.20967102 C-7.6539447 68.2051593 -6.7567572 68.20064758 -5.8323822 68.19599915 C-3.61356572 68.18419693 -1.39488202 68.16773257 0.8238678 68.14717102 C0.78906311 69.37693665 0.75425842 70.60670227 0.71839905 71.87373352 C0.69024734 73.50653229 0.66294867 75.13934592 0.6363678 76.77217102 C0.61123108 77.58041321 0.58609436 78.3886554 0.56019592 79.22138977 C0.49837037 84.29108485 0.96951418 87.7654272 3.8238678 92.14717102 C6.91560531 93.69303978 9.41816332 93.44076623 12.8238678 93.14717102 C16.02049726 90.79175984 17.09409667 88.96470641 17.8238678 85.14717102 C17.90095503 83.77916283 17.93190389 82.4079351 17.92152405 81.03779602 C17.91830139 80.28369446 17.91507874 79.5295929 17.91175842 78.75263977 C17.90337952 77.97533508 17.89500061 77.1980304 17.8863678 76.39717102 C17.88185608 75.60439758 17.87734436 74.81162415 17.87269592 73.99482727 C17.86095344 72.04557594 17.84301925 70.09636364 17.8238678 68.14717102 C18.65579651 68.16288147 18.65579651 68.16288147 19.50453186 68.1789093 C22.02759739 68.22059106 24.55059033 68.2465354 27.0738678 68.27217102 C27.94656311 68.28892883 28.81925842 68.30568665 29.71839905 68.32295227 C30.98490295 68.33262024 30.98490295 68.33262024 32.2769928 68.34248352 C33.43956604 68.35819397 33.43956604 68.35819397 34.62562561 68.3742218 C37.15229371 68.11324875 38.68676546 67.51162867 40.8238678 66.14717102 C43.16936454 62.62892591 43.40378183 61.28941408 42.8238678 57.14717102 C40.75766969 54.21076915 39.17424037 52.38369895 35.53797913 51.7467804 C32.84607848 51.65498498 30.20186181 51.71107942 27.5113678 51.83467102 C26.58002014 51.85722961 25.64867249 51.87978821 24.68910217 51.9030304 C22.39902819 51.96175024 20.11228905 52.04380244 17.8238678 52.14717102 C17.85867249 51.00119446 17.89347717 49.8552179 17.92933655 48.67451477 C17.95749483 47.14458163 17.98479278 45.61463248 18.0113678 44.08467102 C18.03650452 43.33250305 18.06164124 42.58033508 18.08753967 41.80537415 C18.15665817 36.48325002 17.33426172 32.86403709 14.8238678 28.14717102 C10.37473792 24.94935892 7.01568603 26.03017798 2.8238678 29.14717102 Z M175.1363678 27.77217102 C172.31885146 30.66583645 171.8238678 32.13188028 171.8238678 36.14717102 C173.55731655 39.87561066 173.55731655 39.87561066 176.8238678 42.14717102 C180.87650378 42.68752248 182.36117011 42.48916497 185.6988678 40.02217102 C187.99566922 37.31545195 187.99566922 37.31545195 188.5113678 34.14717102 C187.52637913 29.84903866 185.44260656 28.51326944 181.8238678 26.14717102 C177.87092476 25.80222479 177.87092476 25.80222479 175.1363678 27.77217102 Z M146.8238678 56.14717102 C146.01646448 60.58788928 146.32054944 62.41507158 148.8863678 66.14717102 C151.73114754 68.47703079 151.73114754 68.47703079 155.4488678 68.20967102 C158.81444854 67.42652076 158.81444854 67.42652076 160.6988678 65.33467102 C162.25768437 62.37953879 162.25768437 62.37953879 162.8238678 59.14717102 C161.18310287 55.70156468 160.03874337 54.2904214 156.8238678 52.14717102 C152.2365082 51.42285108 149.89187719 52.72853198 146.8238678 56.14717102 Z M197.8238678 57.14717102 C197.27232953 60.5253429 197.46252829 62.36072622 198.8863678 65.45967102 C201.79962232 67.99702173 204.01009269 68.14717102 207.8238678 68.14717102 C211.29022651 66.26328041 212.51239446 64.94315843 213.9488678 61.27217102 C214.06932582 57.93325131 214.06932582 57.93325131 211.7613678 54.77217102 C209.08136538 51.95203344 209.08136538 51.95203344 205.8238678 51.45967102 C201.78011338 52.38636474 200.27533638 53.83047824 197.8238678 57.14717102 Z M173.8238678 80.14717102 C171.47863845 83.0323008 171.47863845 83.0323008 171.9488678 86.64717102 C172.53969219 90.09534378 172.53969219 90.09534378 174.4488678 92.08467102 C177.83555423 93.59976758 180.15804042 93.67086065 183.8238678 93.14717102 C186.50225353 91.21591 186.50225353 91.21591 187.8238678 88.14717102 C187.76310649 84.62301532 187.54642136 82.23100137 185.5738678 79.27217102 C180.97850683 76.3180104 178.07798888 76.92783615 173.8238678 80.14717102 Z " fill="#ffffff" transform="translate(238.17613220214844,289.8528289794922)"/>
<path d="M0 0 C11.68124415 30.85709186 16 65.2162569 16 98 C-15.35 98 -46.7 98 -79 98 C-79 69.62 -79 41.24 -79 12 C-75.19778758 11.36629793 -71.79105885 10.85535294 -68 10.640625 C-46.6400101 9.27419135 -25.31544468 6.36018128 -4.640625 0.69921875 C-2 0 -2 0 0 0 Z " fill="#ffffff" transform="translate(300,107)"/>
<path d="M0 0 C2.25397298 0.37815507 4.49424216 0.83808278 6.7265625 1.328125 C8.15397199 1.63554768 9.58146581 1.942579 11.0090332 2.24926758 C11.76221832 2.4129483 12.51540344 2.57662903 13.29141235 2.74526978 C34.84624539 7.40735124 55.98634519 9.90346145 78 12 C78 40.38 78 68.76 78 98 C46.98 98 15.96 98 -16 98 C-16 74.4986167 -16 74.4986167 -14.875 65.0625 C-14.68031128 63.38486572 -14.68031128 63.38486572 -14.48168945 61.67333984 C-7.7645888 7.7645888 -7.7645888 7.7645888 0 0 Z " fill="#ffffff" transform="translate(127,107)"/>
<path d="M0 0 C25.74 0 51.48 0 78 0 C78.99 15.84 78.99 15.84 80 32 C82.75255004 53.82378958 86.71852397 75.35433829 93.3359375 96.36328125 C94.00748849 99.02973371 94.04860492 101.26525836 94 104 C93.34741211 104.25579834 92.69482422 104.51159668 92.02246094 104.77514648 C77.50189467 110.48292424 63.16108262 116.44951039 49 123 C19.70391654 89.10093125 0 45.35908177 0 0 Z " fill="#ffffff" transform="translate(17,221)"/>
<path d="M0 0 C3.65047669 0.59697416 6.58260452 1.60721123 9.88671875 3.2578125 C10.81734131 3.71567139 11.74796387 4.17353027 12.70678711 4.64526367 C13.69042236 5.13357666 14.67405762 5.62188965 15.6875 6.125 C25.61152078 10.97356365 35.63109214 15.20712859 46 19 C44.80571352 25.48638331 43.28654542 31.83439024 41.58862305 38.20605469 C35.24870676 62.2602914 31.72697956 86.33667293 30.54370117 111.16113281 C30.48287354 112.43698242 30.4220459 113.71283203 30.359375 115.02734375 C30.31264648 116.15906006 30.26591797 117.29077637 30.21777344 118.45678711 C30 121 30 121 29 122 C26.59651714 122.09496708 24.22189018 122.12558862 21.81811523 122.11352539 C20.6913588 122.11374443 20.6913588 122.11374443 19.5418396 122.1139679 C17.04739541 122.11326863 14.55302497 122.10547564 12.05859375 122.09765625 C10.33366436 122.09579212 8.60873443 122.09436819 6.88380432 122.09336853 C2.33487497 122.08954297 -2.21402267 122.07971238 -6.76293945 122.06866455 C-11.40120006 122.05845124 -16.03946577 122.05387108 -20.67773438 122.04882812 C-29.78517022 122.03809014 -38.89258248 122.02101327 -48 122 C-48.08281247 114.18845668 -47.64667994 106.83680873 -46.375 99.125 C-46.19606201 98.03928711 -46.01712402 96.95357422 -45.83276367 95.83496094 C-40.10307155 62.74725761 -25.81454207 33.15199761 -5.19921875 6.8125 C-3.43826789 4.5604847 -1.70452138 2.29476017 0 0 Z " fill="#ffffff" transform="translate(65,83)"/>
<path d="M0 0 C3.10098333 2.03207042 5.22471214 4.88506332 7.49536133 7.76660156 C8.02057373 8.43240234 8.54578613 9.09820312 9.08691406 9.78417969 C27.79893819 34.01856713 39.59408783 62.24662498 45.80786133 92.07910156 C46.01137207 93.04380371 46.21488281 94.00850586 46.42456055 95.00244141 C48.14401737 103.88605311 48.38788423 112.00199092 48.93286133 121.26660156 C23.19286133 121.26660156 -2.54713867 121.26660156 -29.06713867 121.26660156 C-29.45901367 115.42972656 -29.85088867 109.59285156 -30.25463867 103.57910156 C-32.21736913 76.96332074 -36.51678946 50.95255343 -44.24291992 25.35253906 C-45.06713867 22.26660156 -45.06713867 22.26660156 -45.06713867 18.26660156 C-44.43960693 18.01080322 -43.8120752 17.75500488 -43.16552734 17.49145508 C-40.19298611 16.27606774 -37.22341981 15.05364551 -34.25463867 13.82910156 C-32.63283691 13.16152832 -32.63283691 13.16152832 -30.97827148 12.48046875 C-23.1454454 9.22158933 -15.47927281 5.71335045 -7.95849609 1.78442383 C-2.57295102 -0.91285519 -2.57295102 -0.91285519 0 0 Z " fill="#ffffff" transform="translate(361.067138671875,83.7333984375)"/>
<path d="M0 0 C31.02 0 62.04 0 94 0 C94.226875 10.23 94.45375 20.46 94.6875 31 C94.78764404 34.21621094 94.88778809 37.43242187 94.9909668 40.74609375 C95.02310845 43.30984454 95.05113539 45.87365165 95.07421875 48.4375 C95.10296585 49.09419678 95.13171295 49.75089355 95.16133118 50.42749023 C95.34422742 54.83011437 95.29940536 58.77355757 94 63 C91.46011986 65.70458405 88.98960875 67.46559636 85.78962708 69.32861328 C80.88582841 72.26669201 76.41516657 76.97731739 73.97436523 82.19067383 C71.8408906 86.32613327 70.28339227 88.54810131 65.79321289 90.12915039 C61.7599816 90.8788226 57.76441958 91.38774499 53.6875 91.8125 C51.51376833 92.08273171 49.3421742 92.36695232 47.1703949 92.65240479 C45.74581508 92.8389833 44.3206455 93.0211159 42.89491272 93.19866943 C36.11691191 94.05676705 29.65801431 95.59434581 23.08203125 97.3984375 C19.91629203 98.01633844 18.08974324 97.71988304 15 97 C8.59761171 75.60320168 3.79374954 54.25979478 1.1875 32.0625 C1.06342773 31.03463379 0.93935547 30.00676758 0.81152344 28.94775391 C-0.23228995 19.17316514 0 10.00464106 0 0 Z " fill="#ffffff" transform="translate(111,221)"/>
<path d="M0 0 C31.35 0 62.7 0 95 0 C95 15.77104137 95 15.77104137 94.4140625 21.61328125 C94.22457031 23.5149707 94.22457031 23.5149707 94.03125 25.45507812 C93.8971875 26.72802734 93.763125 28.00097656 93.625 29.3125 C93.43550781 31.25092773 93.43550781 31.25092773 93.2421875 33.22851562 C92.55422245 39.96025361 91.55534046 46.41918039 90 53 C88.99046265 53.01030746 87.98092529 53.02061493 86.9407959 53.03123474 C77.40716926 53.12917084 67.87360494 53.2319231 58.34008026 53.33933926 C53.43930713 53.39440385 48.53852788 53.44779663 43.63769531 53.49731445 C38.90439432 53.54520196 34.17116145 53.59755189 29.4379425 53.65294075 C27.63594773 53.67325433 25.83393436 53.69198476 24.03190613 53.70907402 C21.49971838 53.73336335 18.96765643 53.76338175 16.43554688 53.79467773 C15.69754852 53.8004332 14.95955017 53.80618866 14.19918823 53.81211853 C13.14775131 53.82680176 13.14775131 53.82680176 12.07507324 53.84178162 C11.47775139 53.84823417 10.88042953 53.85468672 10.26500702 53.8613348 C6.82878435 54.07170258 3.41607146 54.57299107 0 55 C0 36.85 0 18.7 0 0 Z " fill="#ffffff" transform="translate(221,221)"/>
<path d="M0 0 C25.41123337 5.08224667 42.3904431 20.8117695 56.6015625 41.7890625 C61.35211311 49.02018271 65.42591885 56.52361405 69.1875 64.3125 C69.58662598 65.13129639 69.98575195 65.95009277 70.39697266 66.79370117 C70.75452637 67.5591626 71.11208008 68.32462402 71.48046875 69.11328125 C71.79910889 69.79173096 72.11774902 70.47018066 72.44604492 71.16918945 C73 73 73 73 72 76 C69.68115234 76.84375 69.68115234 76.84375 66.5859375 77.5 C64.87289429 77.86895386 64.87289429 77.86895386 63.12524414 78.24536133 C61.88766357 78.49439209 60.65008301 78.74342285 59.375 79 C58.10841553 79.26127686 56.84183105 79.52255371 55.53686523 79.79174805 C47.74284385 81.35856976 39.94165661 82.75139024 32.0625 83.8125 C31.25151855 83.92400391 30.44053711 84.03550781 29.60498047 84.15039062 C19.75043935 85.35558085 9.96181555 85.52562783 0 86 C0 57.62 0 29.24 0 0 Z " fill="#ffffff" transform="translate(221,17)"/>
<path d="M0 0 C0 28.38 0 56.76 0 86 C-23.43391294 84.82830435 -23.43391294 84.82830435 -34.375 83.25 C-35.59018311 83.07952148 -36.80536621 82.90904297 -38.05737305 82.73339844 C-49.18916008 81.10325397 -60.09400886 78.74053742 -71 76 C-72.50588413 71.39317094 -70.72922598 68.40459876 -68.6875 64.25 C-68.32575684 63.50137695 -67.96401367 62.75275391 -67.59130859 61.98144531 C-55.32232046 37.17256146 -38.13182453 14.05577191 -12 3 C-2.84210526 0 -2.84210526 0 0 0 Z " fill="#ffffff" transform="translate(205,17)"/>
<path d="M0 0 C25.74 0 51.48 0 78 0 C76.84177215 18.53164557 76.84177215 18.53164557 75.1875 27.0625 C75.03474609 27.91392578 74.88199219 28.76535156 74.72460938 29.64257812 C73.23789115 37.59328866 71.10094682 45.12144943 69 53 C44.58 53 20.16 53 -5 53 C-4.01 44.75 -3.02 36.5 -2 28 C-1.34 18.76 -0.68 9.52 0 0 Z " fill="#ffffff" transform="translate(332,221)"/>
<path d="M0 0 C2.59877616 2.30997133 3.87589136 4.52443617 5.27734375 7.69140625 C5.70208984 8.62742676 6.12683594 9.56344727 6.56445312 10.52783203 C7.01755859 11.52927246 7.47066406 12.53071289 7.9375 13.5625 C16.20019983 31.28294113 26.9750307 47.29968277 41 61 C40.505 61.99 40.505 61.99 40 63 C14.16330064 54.50595158 -8.50764113 42.35739909 -29.4375 25 C-29.97584473 24.55519287 -30.51418945 24.11038574 -31.06884766 23.65209961 C-33.76708061 21.33901266 -35.70827925 19.34145726 -37 16 C-25.02182259 9.62971046 -12.74684248 4.6257503 0 0 Z " fill="#ffffff" transform="translate(116,339)"/>
<path d="M0 0 C-1.48301271 3.41401884 -3.43756554 5.69359537 -6 8.375 C-18.56606312 22.14740518 -29.03915219 38.65195362 -35.66870117 56.08740234 C-37.53532481 60.77881382 -37.53532481 60.77881382 -39.72436523 61.82080078 C-42.92070147 62.0725024 -45.02337777 61.08676975 -47.98046875 59.8671875 C-49.14513672 59.39023438 -50.30980469 58.91328125 -51.50976562 58.421875 C-52.72341797 57.91140625 -53.93707031 57.4009375 -55.1875 56.875 C-56.38181641 56.38773438 -57.57613281 55.90046875 -58.80664062 55.3984375 C-65.45325604 52.64760933 -71.82386258 49.69449932 -78 46 C-74.55809221 41.62404288 -71.03616606 38.13137294 -66.625 34.75 C-66.01342041 34.27820312 -65.40184082 33.80640625 -64.77172852 33.3203125 C-21.06665953 -0 -21.06665953 -0 0 0 Z " fill="#ffffff" transform="translate(156,25)"/>
<path d="M0 0 C26.1940763 7.98027414 48.91901585 20.53612841 70 38 C70.79664063 38.63164063 71.59328125 39.26328125 72.4140625 39.9140625 C74.375 41.5 74.375 41.5 77 44 C77 44.99 77 45.98 77 47 C73.32206599 48.65962592 69.64156406 50.31341055 65.95874023 51.9621582 C64.70999995 52.52213791 63.46193376 53.08362364 62.21459961 53.64672852 C43.70375 62 43.70375 62 38 62 C37.5153125 60.86304688 37.030625 59.72609375 36.53125 58.5546875 C28.17891399 39.20489847 17.81018957 22.16539038 3.75878906 6.44140625 C0 2.20072115 0 2.20072115 0 0 Z " fill="#ffffff" transform="translate(271,25)"/>
<path d="M0 0 C-0.99944061 7.25096211 -2.00719793 14.50071679 -3.02558708 21.74904346 C-3.49820555 25.11477608 -3.96795051 28.48085785 -4.43115234 31.84790039 C-4.96380048 35.71882182 -5.50890493 39.58793893 -6.0546875 43.45703125 C-6.21935516 44.66647903 -6.38402283 45.87592682 -6.55368042 47.12202454 C-6.71369537 48.24296005 -6.87371033 49.36389557 -7.03857422 50.51879883 C-7.17625214 51.50697098 -7.31393005 52.49514313 -7.45578003 53.51325989 C-8 56 -8 56 -10 59 C-21.19789135 46.72199708 -41 24.50621241 -41 7 C-12.32218745 -0.05258178 -12.32218745 -0.05258178 0 0 Z " fill="#ffffff" transform="translate(174,327)"/>
</svg>
